<?xml version="1.0" encoding="UTF-8"?>
<svg id="Capa_1" data-name="Capa 1" xmlns="http://www.w3.org/2000/svg" viewBox="0 0 410.79 270.56">
  <path d="m121.01,161.47c-7.88-.39-14.93-3.42-20.98-9.65-3.23-3.32-5.83-7.2-7.78-11.74-.97-2.28-1.92-4.56-2.55-7.03-.65-2.53-1.45-5.03-1.72-7.64-.3-2.89-.77-5.77-.81-8.7.02-.04.05-.08.05-.11-.01-.08-.05-.15-.07-.23-.16-1.22-.12-2.45-.16-3.68.06-.2.06-.4-.01-.6-.09-4.61-.01-9.21.37-13.8.14-.18.14-.39.06-.6,0-.35.11-.71-.14-1.01.06-.1.12-.2.18-.3.04-.16.08-.32.11-.48.15-.18.15-.38.08-.6.2-1.62.35-3.26.62-4.87.14-.81.08-1.63.3-2.43.43-1.56.79-3.16,1.06-4.77.3-1.82.87-3.51,1.42-5.22.62-1.89,1.27-3.73,2.14-5.5,1.04-2.1,2.13-4.14,3.42-6.01,1.01-1.46,2.08-2.81,3.35-3.98.7-.65,1.37-1.36,2.09-1.97,4.06-3.48,8.62-5.53,13.45-6.78,3.71-.96,7.46-1.36,11.24-1.53.85.32,1.72.12,2.57.11.22,0,.42-.19.15-.5-.47-1.43-.55-2.99-1.06-4.43-.32-.91-.54-1.97-.64-2.93-.14-1.32-.61-2.49-.82-3.76-.55-3.23-1.39-6.36-2.14-9.52-.03-.13,0-.28-.04-.39-.23-.62-.13-.92.48-1.06.9-.2,1.76-.58,2.65-.84.34-.1.53-.2.43-.68-.33-1.63-.62-3.27-1.14-4.84-.46-1.42-.57-2.95-.88-4.42-.1-.46.32-.5.6-.6,1.91-.65,3.81-1.3,5.72-1.95,1.06-.36,2.12-.72,3.17-1.09,1.17-.4.98-.53,1.34.99.6,2.56,1.17,5.13,1.75,7.69.22.97.23.97,1.01.71.67-.22,1.34-.44,2.02-.67,1.06-.36,1.06-.36,1.34.85,1.35,5.98,2.7,11.97,4.06,17.95.66,2.91,1.32,5.81,1.98,8.72.05.21.07.44.23.58.34.39.77.21,1.16.21,5.51.02,11.01.02,16.52.02.02,1.86.04,3.73.05,5.59,0,3.91,0,7.81,0,11.72,0,1.54.02,1.33-1.15,1.34-3.71,0-7.43,0-11.14,0-.36,0-.73,0-1.18,0,.19,1.57.61,2.97.92,4.4.41,1.92.43,1.89-1.09,2.45-.76.28-1.57.36-2.25.92.09.93.36,1.8.56,2.69.47,2.1.94,4.19,1.4,6.29.22,1.01.22,1.03-.63,1.32-2.71.94-5.43,1.85-8.14,2.8-.41.14-.87.15-1.22.55-.36.41-.53.02-.58-.33-.42-2.98-1.28-5.82-1.87-8.74-.21-1.03-.24-1.02-1.13-.73-.74.25-1.48.51-2.22.75-.73.24-.75.24-.96-.66-.76-3.33-1.51-6.67-2.26-10.01-.38-1.7-.38-1.71-1.88-1.7-2.02,0-4.04.03-6.06.04-.47-.07-.93-.12-1.35.2-3.65.52-6.98,1.97-9.79,4.9-1.63,1.7-2.88,3.76-3.84,6.08-1.54,3.72-2.36,7.7-2.9,11.78-.2,1.48-.32,2.98-.47,4.48-.02.03-.07.06-.07.09,0,.07.03.15.05.22-.07,1.05-.13,2.11-.2,3.16-.14.18-.2.37-.03.58-.2,3.72-.22,7.43,0,11.15-.16.2-.11.39.03.57.26,5.03.89,9.96,2.44,14.67.74,2.24,1.73,4.3,3.02,6.16,2.27,3.31,5.29,5.05,8.65,6.1,1.6.5,3.24.76,4.9.83.3.25.6.28.91.03,7.13,0,14.26,0,21.38,0,.14.16.2.1.22-.1.01-.58.04-1.15.04-1.73,0-7.37,0-14.74,0-22.12,0-.49-.02-.98-.03-1.46-.33-.53-.81-.28-1.22-.28-7.83-.02-15.66-.02-23.49-.02-.02-.4-.05-.79-.05-1.19,0-5.9.02-11.81.03-17.71.15-.07.3-.14.45-.21,14.05,0,28.1,0,42.15,0,.34.3.75.1,1.12.2.15.47.08.97.08,1.45,0,20.44,0,40.88,0,61.33,0,.13,0,.27,0,.4,0,1.22.03,1.14-.98,1.14-6.29,0-12.58,0-18.88,0-.7,0-1.4,0-2.1,0-1.11,0-1.05-.06-1.05,1.34,0,3.47,0,6.93,0,10.4,0,2.18,0,4.35.01,6.53.39.64.95.31,1.42.31,46.55.02,93.1.02,139.65.02.66,0,1.32,0,1.99,0,.29,0,.59.04.85-.2,4.01-.47,7.19-2.63,9.56-6.62,1.35-2.28,2.13-4.78,2.45-7.52.16-.18.16-.39.07-.61.01-.53.03-1.07.03-1.6,0-16.89,0-33.78,0-50.67,0-.27,0-.53,0-.87-.57-.02-.84.52-1.19.84-.81.73-1.69.87-2.6.46-1.33-.61-1.94-2.48-1.34-4.09.25-.66.55-1.25,1.13-1.7.88-.7,1.61-1.67,2.42-2.52,1.78-1.85,3.6-3.64,5.51-5.29-.13-.48-.46-.64-.7-.89-.92-.97-1.73-2.05-2.37-3.32-.64-1.28-.53-2.64.41-3.71.34-.39.74-.74,1.14-1.03.61-.44,1.28-.34,1.83.22.17.17.35.35.47.56.94,1.69,2.39,2.59,3.78,3.58,3.35,2.4,6.84,4.49,10.27,6.73,3.92,2.57,8.08,3.39,12.48,2.62.62-.11,1.24-.16,1.86-.24.26.19.5.14.73-.07.58-.07,1.16-.14,1.74-.2.32.24.62.16.91-.07,2.08-.23,4.18-.29,6.37-.9-.83-.5-1.63-.64-2.37-1-1.58-.76-2.84-2-4-3.42-.83-1.02-1.24-2.3-1.1-3.75.13-1.43.61-2.55,1.91-2.86.12,0,.23,0,.35,0,1,.39,1.65,1.31,2.4,2.14,1.59,1.77,3.52,2.86,5.65,3.38,1.77.43,3.56.61,5.35.81.22.2.44.29.69.06,1.67.2,3.31.64,4.96.99,1.01.21,1.86.84,2.53,1.76.48.66.79,1.4.46,2.31-.32.89-.95,1.18-1.68,1.25-1.33.12-2.63-.23-3.94-.42-.94-.13-1.87-.28-2.82-.32,2.09,1.55,4.28,2.48,6.72,1.34,1.57-.73,3.12-1.56,4.67-2.34,1.51-.76,2-2.39,2.34-4.09.34-1.72.58-3.47.88-5.21.21-1.22.48-2.43,1-3.51.28-.58.22-1.09.02-1.64-.36-.95-.92-1.71-1.53-2.42-1.72-2.01-3.36-4.1-4.67-6.54-.24-.44-.43-.91-.66-1.35-1.29-2.53-2.55-5.08-4.04-7.46-1.07-1.71-1.79-3.66-2.46-5.64-.63-1.84-1.21-3.71-1.83-5.56-.43-1.28-.9-2.53-1.56-3.66-1.05-1.8-1.1-3.71-.35-5.68.54-1.42,1.26-2.74,2.12-3.87,1.47-1.93,1.71-4.14,1.31-6.57-.15-.91-.29-1.83-.43-2.75.06-.15.02-.27-.09-.35-.02-.13-.06-.26-.06-.39-.08-2.62-1.35-4.3-3.03-5.66-1.15-.93-2.31-1.84-3.48-2.73-2.1-1.6-3.79-3.74-5.35-6.04-1.07-1.58-2.08-3.23-3.25-4.69-2.54-3.19-5.5-5.58-9.2-6.37-.42-.09-.85-.24-1.28-.3-.21-.24-.46-.24-.72-.14-.79,0-1.57,0-2.36,0-.33-.1-.65-.12-.94.15-2.55.3-4.95,1.24-7.32,2.37-2.99,1.43-5.58,3.67-8.2,5.84-.39.32-.59.63-.6,1.27-.02,1.93-.88,3.37-2.16,4.39-1.31,1.05-3.11.06-3.56-1.9-.35-1.54-.66-3.09-1.09-4.61-.6-2.1-1.35-4.12-2.19-6.1-1.49-3.51-3.96-5.09-7.09-5.47-.22-.03-.44-.04-.66-.06-.9-.32-1.79-.32-2.69,0-.8.11-1.61.19-2.4.33-.86.15-1.01.34-1.09,1.33-.33,3.96.39,7.58,2.5,10.71.21.31.41.63.64.91,2.09,2.61,4.04,5.38,6.26,7.84,1.31,1.45,2.67,2.82,3.98,4.27,1.03,1.13,1.2,2.78.3,3.87-.87,1.06-2.15,1.81-3.39.73-.65-.57-1.3-1.14-1.9-1.78-1.12-1.2-2.21-2.45-3.32-3.67-.43-.38-.93-.2-1.39-.2-43.65,0-87.3,0-130.95,0-.55,0-1.1-.04-1.65-.06-.47-2.1-1.19-4.11-1.51-6.37h130.1c-.34-.49-.56-.83-.79-1.15-1.37-1.95-2.44-4.1-3.14-6.52-.19-.65-.5-1.28-.57-1.95-.37-3.26-.54-6.54,0-9.8.25-.23.11-.56.14-.84,0,0,0,0,0,0,.14-.03.2-.14.17-.3.43-1.51,1.35-2.38,2.57-2.87,1.02-.41,2.08-.54,3.14-.65,2.86-.3,5.71-.48,8.57.07,3.18.6,5.69,2.45,7.69,5.43,1.02,1.53,1.87,3.18,2.58,4.95.24.61.46.64.92.33,1.37-.94,2.73-1.93,4.16-2.71,3.14-1.71,6.32-3.3,9.75-3.94,1.09-.2,2.19-.31,3.28-.46.97.23,1.94.24,2.91,0,1.79.21,3.58.39,5.32.95,2.2.71,4.39,1.5,6.34,2.96,1.54,1.15,2.88,2.64,4.02,4.36,1.44,2.18,2.89,4.35,4.36,6.51.67.99,1.38,1.95,2.21,2.77.36.35.67.52,1.18.34,2.43-.84,4.9-1.47,7.41-1.88.26.19.5.11.73-.08.58-.07,1.16-.13,1.74-.2.97.23,1.94.22,2.91.01.43.06.87.13,1.3.19.16.14.32.24.5.08,1.56.64,3.12,1.21,4.47,2.46.91.84,1.67,1.79,2.21,2.96,1.12,2.42,1.7,5,1.18,7.8-.08.11-.13.22-.06.36-.3.5-.44,1.09-.55,1.67-.67,3.45-2.56,5.79-4.82,7.78-2.11,1.85-4.47,3.01-7.08,3.29-.29.03-.47.16-.6.48-.72,1.87-1.82,3.43-2.83,5.07-.44.71-.44,1.24-.05,2.01,1.09,2.12,1.76,4.48,2.49,6.8.98,3.12,2.13,6.12,3.86,8.77,1.14,1.74,2,3.71,2.94,5.62,1.1,2.23,2.38,4.26,3.93,6.05.66.76,1.29,1.58,1.9,2.41,1.27,1.7,2.07,3.65,2.16,5.97-.18.28-.18.56,0,.85-.11,1.55-.28,3.09-1.01,4.43-.17.31-.21.65-.24,1.01-.28,3.31-1.27,6.35-2.49,9.3-.49,1.17-1.18,2.18-2.15,2.77-2.75,1.67-5.54,3.23-8.53,4.2-.31.1-.65.1-.98.15-.74,0-1.48,0-2.22,0-1.37.11-2.56-.64-3.77-1.22-1.21-.58-2.35-1.32-3.48-2.07-.46-.4-.92-.26-1.37.03-2.37.51-4.75,1.04-7.12,1.51-1.87.37-3.75.78-5.64.97-.33-.07-.64-.08-.92.19-1.09.09-2.17.38-3.27.35-1.27,0-2.53,0-3.8,0-1.58-.06-3.02-.68-4.4-1.55-2.34-1.48-4.67-2.99-7-4.48-1.04-.67-2.08-1.3-3.24-1.61-.72-.19-1.38-.14-2,.37-.94.78-1.87,1.56-2.84,2.3-.3.23-.38.48-.36.86.02.31,0,.62,0,.93,0,18.2,0,36.4,0,54.61,0,1.38.01,2.75-.19,4.11-.23,1.52-.62,2.98-1.02,4.43-.46,1.68-1.11,3.26-1.93,4.74-.61,1.1-1.3,2.11-2.05,3.07-2.67,3.43-5.88,5.71-9.7,6.74-.4.11-.8.09-1.19.22-.26-.11-.51-.1-.73.13-.77.02-1.54.06-2.32.06-77.1,0-154.19,0-231.29.02-4.98,0-9.3-1.91-12.94-5.99-2.76-3.09-4.64-6.84-5.43-11.32.05-.15.02-.27-.1-.35-.36-2.05-.48-4.13-.48-6.22,0-38.3,0-76.61,0-114.91,0-2.55.2-5.05.8-7.5.63-2.62,1.68-4.96,2.95-7.21,1.46-2.58,3.43-4.53,5.57-6.07,2.32-1.67,4.94-2.69,7.72-2.84.66-.04,1.32-.04,1.99-.04,17.88,0,35.76,0,53.64,0,.26,0,.52.02.77,0,.49-.03.78.29.88.8.36,1.89.95,3.72,1.18,5.65-19.01,0-38.03,0-57.04,0-.36,0-.74-.1-1.07.2-6.35.61-11.47,6.91-11.94,14.7-.11.1-.15.2-.02.32,0,.8-.02,1.6-.02,2.4,0,38.07,0,76.15,0,114.22,0,.93.03,1.87.04,2.8-.02.03-.06.07-.06.09.01.07.05.14.07.21.56,7.38,5.48,13.81,11.94,14.42.51.36,1.08.2,1.62.2,22.85,0,45.7,0,68.55,0,.29,0,.59,0,.88,0,.19,0,.37-.04.46-.27.01-5.35.03-10.7.03-16.05,0-.73.27-1.65-.17-2.15-.39-.45-1.12-.12-1.7-.17-.55-.04-1.1-.05-1.65-.07-.58-.34-1.19-.24-1.79-.19Zm241.29-123.09c.19.16.36.09.51-.08.87-.43,1.84-.67,2.49-1.57,1.05-1.47,1.79-3.13,2.01-5.09.11-.1.12-.22.05-.36.02-2.08-.63-3.71-2.25-4.6-.65-.36-1.33-.67-2.06-.74-.9-.37-1.79-.34-2.68.04-1.65.18-3.21.8-4.86,1.51.83.57,1.21,1.49,1.71,2.29.81,1.33,1.29,2.86,1.59,4.46.25,1.33.48,2.67.72,4,.11.27.27.29.47.14.77.13,1.54.19,2.31.01Z" fill="#fff"/>
  <path d="m252.1,135.89c-.21,3.01-.66,5.97-1.51,8.82-2.03,6.8-5.97,11.34-11.47,14-3.05,1.48-6.22,2.31-9.48,2.75-.8.11-1.6.29-2.41.27-.75-.04-1.51-.14-2.23.2-1.18.02-2.35.05-3.53.05-15.96,0-31.91,0-47.87,0-.37,0-.73-.03-1.1-.05,0-.71,0-1.42,0-2.13,0-23.71,0-47.42,0-71.13,0-12.25,0-24.51,0-36.76.22-.02.44-.05.66-.05,15.67,0,31.33,0,47,0,.15,0,.29,0,.44.01.96.27,1.93.31,2.9.06,3.7.24,7.38.59,11.03,1.5,9.32,2.33,15.81,10.87,17.17,22.14.1.79.14,1.59.21,2.38-.17.2-.11.39.03.57,0,1.41,0,2.82,0,4.23-.13.18-.2.37-.03.58-.19,2.8-.58,5.55-1.36,8.2-1.51,5.16-4.26,9.17-7.9,12.35-1.25,1.1-2.59,2.02-3.93,2.98.33.39.73.5,1.08.71,2.64,1.53,5.07,3.43,7.09,6.01,2.97,3.78,4.5,8.35,5.08,13.46.3,2.66.25,5.32.19,7.98-.17.27-.24.54-.06.85Zm-31.03-64.11c-.51-.35-1.06-.24-1.6-.15-.15,0-.29,0-.44,0-8.9,0-17.81,0-26.71,0-.97,0-.97.01-.98,1.15,0,.09,0,.18,0,.27,0,6.71,0,13.42,0,20.13,0,1.28-.08,2.57.07,3.86.07.14.17.17.29.1,8.86,0,17.71,0,26.57-.02.84,0,1.69-.07,2.53-.11.24.23.47.18.69-.05.65-.1,1.32-.15,1.96-.32,4.2-1.15,6.67-3.51,7.66-8.35.8-3.9.55-7.83-1.17-11.46-.63-1.34-1.55-2.38-2.61-3.03-1.95-1.18-4.02-2.08-6.26-2.04Zm1.55,45.07c-.35-.32-.74-.26-1.13-.19-.7-.02-1.4-.04-2.1-.04-8.97,0-17.94,0-26.92,0-.22,0-.44,0-.66,0-.32,0-.47.18-.46.56,0,.35,0,.71,0,1.07,0,4.84,0,9.68-.01,14.52,0,2.93,0,5.86,0,8.79,0,.93.02.93.79.95.11,0,.22,0,.33,0,8.94,0,17.87,0,26.81,0,.88,0,1.76-.03,2.64-.17.25.24.47.13.69-.07.51-.1,1.02-.18,1.52-.3,3.76-.93,6.41-3.38,7.25-8.08.63-3.52.59-7.05-.48-10.48-.75-2.39-2.13-4.11-4.04-5.19-1.34-.75-2.75-1.19-4.22-1.38Z" fill="#fff"/>
  <path d="m81.5,106.93c0,14.62,0,29.24,0,43.86,0,3.96-1.34,7.15-3.97,9.48-3.11,2.75-7.39,2.74-10.53.05-2.67-2.29-3.98-5.47-4.02-9.37-.06-5.91-.02-11.82-.02-17.73,0-23.51,0-47.01,0-70.52q0-1.79,1.53-1.79c5.26,0,10.52,0,15.79,0,.26,0,.52,0,.77,0,.32-.01.46.17.45.56-.01.36,0,.71,0,1.07,0,14.8,0,29.6,0,44.39Z" fill="#fff"/>
  <path d="m258.59,106.91c0-14.75,0-29.5,0-44.25,0-1.66-.18-1.47,1.24-1.47,5.37,0,10.74,0,16.11,0,.18,0,.37.02.55,0,.45-.05.71.11.65.73-.02.22,0,.44,0,.67,0,29.37,0,58.74.01,88.11,0,2.87-.58,5.47-2.11,7.66-2.47,3.54-5.64,4.96-9.37,3.84-3.66-1.1-5.93-4.08-6.86-8.51-.22-1.04-.23-2.11-.23-3.18,0-14.53,0-29.06,0-43.59Z" fill="#fff"/>
  <path d="m197.86,259.85c0-3.02,0-6.04,0-9.07,0-1.01.02-1.03.85-1.03,2.91,0,5.81-.02,8.72.02,1.34.02,2.62.37,3.72,1.43,1.97,1.88,2.05,5.65.11,7.56-.14.14-.25.32-.39.47q-.58.6.02,1.1c1.96,1.64,2.44,5.42.95,7.66-.82,1.23-2.03,1.6-3.24,1.9-.43.1-.88.09-1.32.09-2.83,0-5.67,0-8.5,0-.9,0-.92-.01-.92-1.07,0-3.02,0-6.04,0-9.07Zm10.98-4.47c.06-.14.04-.26-.07-.35-.23-1.06-.85-1.54-1.7-1.56-1.72-.05-3.45-.02-5.17-.04-.37,0-.52.17-.52.63.02,1.11.02,2.22,0,3.32-.01.54.18.68.59.68,1.72-.02,3.45-.04,5.17-.03.65,0,1.07-.35,1.32-1.06.07-.19.2-.36.3-.53.11-.09.13-.21.07-.35,0-.23,0-.47,0-.7Zm-7.42,6.39c-.01,1.11-.03,2.22-.03,3.33,0,1.32-.1,1.23,1.1,1.27,1.5.05,3-.14,4.5.12.74.13,1.74-1.03,1.87-2,.21-1.55-.52-2.73-1.83-2.78-1.8-.07-3.6-.03-5.4-.04-.13-.14-.2-.11-.21.1Z" fill="#fff"/>
  <path d="m66.39,254.74c-.03-1.57-.06-3.14-.08-4.71.06-.08.12-.17.18-.25.92,0,1.84.02,2.76-.03.55-.03.74.24.68.86-.01.18,0,.36,0,.53,0,5.82,0,11.64,0,17.45,0,.27,0,.53,0,.8,0,.36-.09.6-.43.6-1.1,0-2.21,0-3.31,0-.37,0-.5-.29-.65-.61-.41-.89-.84-1.77-1.25-2.66-1.62-3.43-3.23-6.87-4.85-10.3-.17-.36-.29-.79-.73-1.18v4.07c-.22.73-.19,1.45.02,2.17.02,2.53.02,5.06.06,7.59,0,.65-.09.98-.72.93-.77-.06-1.54-.04-2.31,0-.43.02-.58-.19-.57-.7.02-1.15,0-2.31,0-3.46,0-4.97,0-9.94,0-14.92,0-1.15,0-1.15.96-1.16.92,0,1.84.04,2.76-.02.55-.03.85.22,1.12.79,1.99,4.29,4.01,8.57,6.02,12.85.07.15.18.28.26.41.43-.11.2-.46.18-.73-.02-2.12-.04-4.24-.07-6.36.12-.66.13-1.32-.02-1.97Zm-7.79.22l.05.05v-.08s-.05.03-.05.03Z" fill="#fff"/>
  <path d="m11.03,232.15c.01,2.22.01,4.43.06,6.65.01.65-.16.86-.69.83-.73-.05-1.47-.06-2.2,0-.6.05-.73-.24-.73-.91.02-4.25,0-8.51.01-12.76,0-2.13.02-4.25.03-6.38,1.49,0,2.97-.01,4.46-.02,2.12,4.47,4.24,8.93,6.37,13.4.07.28.09.68.42.57.16-.05.09-.39.03-.6-.02-1.85-.04-3.7-.06-5.55.12-.74.16-1.47-.03-2.2-.03-1.85-.05-3.69-.08-5.54,1.17-.03,2.35-.07,3.52-.1.15.38.08.79.08,1.18,0,5.86,0,11.72,0,17.58,0,.22,0,.44,0,.67.02.43-.12.65-.5.65-1.07-.01-2.13-.02-3.2,0-.46.01-.66-.35-.82-.74-1.26-3.04-2.72-5.96-4.15-8.89-.81-1.67-1.51-3.41-2.42-5.17-.32.94-.1,1.8-.13,2.63-.03.84,0,1.69.02,2.53-.22.73-.19,1.45.02,2.17Zm-.07-7.63l-.04.06h.05s-.01-.06-.01-.06Z" fill="#fff"/>
  <path d="m286.22,249.81c1.25-.02,2.5,0,3.74-.07.48-.02.72.23.94.7,1.06,2.28,2.14,4.54,3.21,6.81.96,2.04,1.92,4.07,2.88,6.11.02.31.11.66.38.59.19-.05.13-.42.05-.65-.01-1.13-.02-2.26-.04-3.39.1-.3.1-.6-.01-.9-.04-2.66-.09-5.33-.13-7.99-.02-1.4-.06-1.26,1.08-1.27.59,0,1.18.05,1.76-.01.6-.06.75.25.74.92-.02,2.13,0,4.26,0,6.39,0,3.95,0,7.9,0,11.85,0,1.07-.01,1.07-.91,1.08-.77,0-1.55-.05-2.31.02-.65.06-.98-.25-1.29-.92-1.95-4.22-3.94-8.41-5.93-12.62-.2-.42-.42-.83-.63-1.24,0-.13-.04-.3-.15-.25-.17.07-.11.26-.05.41.05,4.49.11,8.97.16,13.46.01,1.24.03,1.15-.96,1.14-.84,0-1.69-.03-2.53-.05-.03-.08-.06-.16-.09-.24,0-6.55,0-13.1,0-19.66.07-.05.09-.13.08-.22Z" fill="#fff"/>
  <path d="m199.78,225.14c-.03-1.83-.05-3.67-.08-5.5,1.17-.05,2.33-.09,3.5-.14,0,0,.03.05.03.05-.01.04-.05.09-.04.12.02.08.07.15.1.22,0,6.21.01,12.43.01,18.64,0,1.05-.01,1.06-.92,1.07-.33,0-.66.02-.99,0-.73-.05-1.59.34-2.15-.16-.54-.49-.79-1.46-1.17-2.21-.69-1.35-1.4-2.69-2.02-4.07-.74-1.63-1.51-3.26-2.22-4.91-.48-1.12-1.04-2.19-1.77-3.24,0,.76,0,1.53,0,2.29-.21,1.79-.18,3.58.05,5.37.02,2.04.01,4.07.06,6.11.01.64-.15.86-.68.83-.81-.04-1.61-.03-2.42,0-.38,0-.54-.18-.5-.63,0-.09,0-.18,0-.27,0-6.38.02-12.75.03-19.13,1.47,0,2.95,0,4.42,0,.78,1.6,1.47,3.27,2.29,4.85,1.24,2.38,2.18,4.96,3.48,7.31.3.55.47,1.21,1.02,1.9,0-2.7,0-5.15,0-7.6.1-.3.1-.6-.01-.9Z" fill="#fff"/>
  <path d="m19.61,259.02c.02-1.29.19-2.54.52-3.77.8-2.97,2.52-4.65,5.02-5.24.29-.07.58-.12.86-.17.54.18,1.08.17,1.61-.08,2.35,0,4.7,0,7.05,0,.12.1.23.2.35.3,0,.71.03,1.42.02,2.13,0,1.02-.02,1.04-.84,1.04-1.77.01-3.53,0-5.3,0-.55,0-1.11-.03-1.66.01-1.95.15-2.93,1.14-3.44,3.42-.09.43-.14.87-.21,1.3-.09.11-.12.23-.04.36-.12,1.11-.13,2.21,0,3.32-.08.14-.05.25.04.36.08.48.14.96.26,1.43.4,1.61,1.32,2.62,2.67,2.77,1.46.16,2.94.06,4.41.09.43,0,.45-.32.44-.7-.01-1.29-.02-2.58-.02-3.86-.21-.47-.58-.28-.88-.29-1.24-.02-2.49,0-3.73,0-.02-.93-.02-1.86-.06-2.79-.02-.55.2-.66.6-.66,2.39.01,4.77.01,7.16,0,.41,0,.6.14.6.68-.01,3.55-.01,7.09,0,10.64,0,.53-.19.69-.59.68-2.83-.02-5.66.08-8.48-.07-3.5-.19-5.89-3.11-6.29-7.48-.09-.92-.07-1.86-.1-2.79.09-.21.09-.42.02-.64Z" fill="#fff"/>
  <path d="m367.68,219.57c.02,1.37.05,2.75.05,4.12,0,4.92,0,9.85,0,14.77,0,1.24.05,1.15-.95,1.15-.77,0-1.54-.04-2.31.01-.58.04-.92-.17-1.22-.82-.97-2.12-2.04-4.18-3.04-6.28-1.15-2.42-2.3-4.86-3.35-7.35,0-.28-.1-.61-.32-.55-.28.07-.13.4-.08.63.05,4.42.11,8.83.16,13.25.01,1.09,0,1.1-.87,1.1-.88,0-1.75-.03-2.63-.05-.03-.09-.06-.18-.09-.27,0-6.36,0-12.73,0-19.09,0-.22.02-.44.04-.66,1.49.02,2.97.04,4.46.06,1.91,4.01,3.82,8.02,5.73,12.03.27.57.56,1.14.84,1.7.01.17.07.35.22.27.11-.06.09-.27.03-.43-.01-1.04-.02-2.08-.03-3.12.1-.3.1-.6,0-.9-.07-3.17-.16-6.34-.11-9.52,1.17-.02,2.34-.04,3.51-.06Z" fill="#fff"/>
  <path d="m407.11,222.47c-.01-.94-.02-1.87-.04-2.81.4-.03.79-.07,1.19-.1.76-.05,1.52.11,2.27-.12.05.01.07.05.09.1-.15.47-.09.96-.09,1.45,0,3.67,0,7.35,0,11.02,0,2.52-.03,5.04-.04,7.56-1.07,0-2.13-.02-3.2.04-.55.03-.85-.23-1.12-.8-1.04-2.24-2.11-4.46-3.19-6.67-1.09-2.2-2.09-4.47-3.1-6.72-.08-.18-.18-.35-.41-.79-.03.61-.06.93-.05,1.26.03,4.17.06,8.35.09,12.52,0,1.17,0,1.18-.92,1.19-.74,0-1.47,0-2.21,0-.31,0-.48-.14-.47-.54,0-.09,0-.18,0-.27.01-6.4.02-12.79.03-19.19,1.48-.03,2.96-.05,4.43-.08,1.45,3.03,2.91,6.06,4.35,9.09.76,1.6,1.52,3.21,2.39,5.07,0-3.37,0-6.44,0-9.51.12-.57.13-1.14-.02-1.7Z" fill="#fff"/>
  <path d="m358.44,258.11c.18-.04.36-.11.54-.11,2.39,0,4.77.01,7.16-.02.53,0,.69.2.68.83-.02,3.46-.02,6.92,0,10.37,0,.67-.2.81-.71.81-2.68-.03-5.36.04-8.04-.05-3.55-.12-5.96-2.78-6.53-7.02-.21-1.54-.26-3.08-.11-4.63.15-.18.15-.39.07-.6.12-2.2.91-4.07,1.96-5.82.18-.29.45-.43.7-.6,1.4-.94,2.89-1.48,4.49-1.5,2.46-.03,4.92,0,7.39-.03.54,0,.82.13.77.87-.04.66-.02,1.33,0,2,.01.45-.13.66-.51.63-.22-.02-.44,0-.66,0-1.98,0-3.97,0-5.95,0-.48,0-.95.06-1.42.16-1.2.25-2.04,1.07-2.43,2.41-.75,2.58-.78,5.22-.11,7.84.43,1.69,1.49,2.51,2.88,2.61,1.32.1,2.64.02,3.97.05.47.01.65-.2.64-.77-.03-1.24-.01-2.48-.01-3.73-.1-.51-.45-.36-.71-.36-.99-.02-1.97,0-2.96-.01-.36,0-.74.1-1.03-.27-.02-.99-.03-1.98-.05-2.97,0,0,0-.08,0-.08Z" fill="#fff"/>
  <path d="m110.58,227.55c.04-.44.05-.89.12-1.32.64-4.11,2.57-6.39,6.12-7.05,1.71-.32,3.45-.28,5.14.25,2.48.78,4.1,2.66,4.78,5.66.62,2.74.65,5.53.11,8.29-.78,4.04-2.92,6.16-6.47,6.54-1.05,0-2.1,0-3.16-.01-1.82.22-3.26-.87-4.58-2.12-.9-.86-1.52-2.13-1.72-3.52-.14-1.04-.4-2.07-.36-3.15.09-.21.09-.42-.05-.61-.07-.69-.07-1.39-.01-2.08.18-.27.16-.57.06-.87Zm7.58,8.93c.43,0,.86,0,1.28,0,.18.2.33.12.47-.06,1.49-.62,2.7-1.6,3.11-3.59.47-2.29.49-4.57-.05-6.84-.55-2.34-1.91-3.48-4.03-3.5-2.23-.02-3.61,1.04-4.2,3.41-.63,2.53-.57,5.08.11,7.59.47,1.75,1.5,2.76,3.04,2.95.08.14.16.2.26.03Z" fill="#fff"/>
  <path d="m135.06,261.64c1.34,2.71,2.67,5.41,4.11,8.33-1.32,0-2.5,0-3.69,0-.16,0-.28-.07-.37-.23-.36-.7-.76-1.37-1.06-2.11-.7-1.76-1.57-3.41-2.33-5.13-.16-.36-.37-.49-.71-.49-1.03.02-2.06.03-3.09,0-.48-.01-.54.29-.54.74,0,2.04,0,4.09,0,6.13,0,1.08-.01,1.09-.89,1.1-.59,0-1.18,0-1.77,0-.86-.01-.87-.02-.87-1.12,0-2.31,0-4.62,0-6.93,0-3.69,0-7.38,0-11.06,0-1.1.01-1.11.89-1.11,2.69,0,5.37,0,8.06,0,.96,0,1.91.16,2.81.56,1.2.53,2.07,1.5,2.46,3.01.42,1.61.45,3.23.03,4.85-.44,1.73-1.27,2.66-3.05,3.46Zm-3.43-8.24c-1.19-.28-2.38-.28-3.58,0-.13,0-.27,0-.4,0-.13-.15-.2-.12-.22.1-.01,1.41-.01,2.83-.04,4.24-.01.57.16.77.64.76,1.35-.03,2.71,0,4.06-.03.47-.01.95-.11,1.41-.25.86-.27,1.25-.98,1.29-2.19.04-1.31-.31-1.97-1.21-2.37-.64-.28-1.3-.2-1.95-.26Z" fill="#fff"/>
  <path d="m221.65,257.95c.17-2.61.83-4.92,2.56-6.68.57-.59,1.23-.93,1.89-1.19,2.51-.97,5.07-1,7.58-.04,2.2.84,3.54,2.76,4.14,5.43.61,2.7.63,5.44.13,8.17-.75,4.09-2.98,6.32-6.51,6.64-1.04,0-2.08,0-3.11,0-3.8-.38-6.09-3.05-6.6-7.71-.04-.35-.05-.7-.08-1.05.02-.04.05-.08.05-.11-.01-.08-.05-.15-.07-.23-.09-.87-.1-1.74-.02-2.61.13-.19.13-.39.05-.61Zm12.76.82c-.11-.92-.17-1.85-.44-2.73-.59-1.96-1.75-3-3.46-3.14-.33-.03-.66-.03-.99-.01-1.88.09-3.12,1.17-3.68,3.33-.65,2.52-.6,5.08.08,7.59.52,1.93,1.71,2.92,3.39,3.04.44.03.88.03,1.32-.01,1.57-.16,2.66-1.11,3.26-2.89.3-.87.4-1.79.49-2.72.24-.81.21-1.63.03-2.45Z" fill="#fff"/>
  <path d="m90.13,259.79c0-3.02,0-6.04,0-9.06,0-.95.02-.97.78-.98,2.5,0,5,0,7.5,0,.7,0,1.4.15,2.07.34,2.42.69,4.02,2.45,4.71,5.37.63,2.7.73,5.42.2,8.16-.74,3.85-2.97,6.16-6.23,6.3-2.79.12-5.59.03-8.38.07-.58,0-.65-.31-.65-.89.01-3.11,0-6.21,0-9.32Zm3.53.07c0,1.95,0,3.9,0,5.86,0,.45.06.79.53.77,1.58-.07,3.16.12,4.73-.15,1.45-.25,2.33-1.23,2.63-2.93.42-2.33.42-4.68,0-7-.33-1.85-1.16-2.71-2.71-2.98-1.54-.27-3.08-.08-4.62-.14-.55-.02-.56.39-.56.87,0,1.91,0,3.82,0,5.72Z" fill="#fff"/>
  <path d="m310.02,270.28c-3.75-.33-6.01-2.81-6.62-7.28-.35-2.57-.33-5.12.23-7.65.34-1.55,1.04-2.87,1.94-3.95.56-.68,1.41-1.08,2.22-1.37,2.38-.86,4.78-.9,7.17-.1,2.27.76,3.74,2.56,4.39,5.29.72,3.01.73,6.06.06,9.07-.81,3.64-2.98,5.66-6.27,5.99-1.04,0-2.08,0-3.11.01Zm-2.89-8.53c.09.56.15,1.14.28,1.69.53,2.16,1.76,3.3,3.62,3.41.4.02.81.02,1.21-.02,1.57-.16,2.72-1.11,3.25-2.91.78-2.68.76-5.41,0-8.09-.43-1.54-1.39-2.49-2.7-2.82-.53-.14-1.1-.13-1.64-.12-1.95.07-3.23,1.26-3.78,3.54-.39,1.64-.46,3.31-.27,5.01-.02.03-.06.07-.06.1.02.08.06.14.09.22Z" fill="#fff"/>
  <path d="m350.61,230.56c-.13,1.64-.39,3.26-.89,4.79-.54,1.67-1.57,2.88-2.92,3.65-.87.49-1.78.84-2.75.89-1.15-.02-2.29-.04-3.44-.05-.15,0-.28.07-.36.23-.18.08-.33.06-.43-.18-.15-.37-.41-.3-.67-.26-.82,0-1.45-.45-2.11-1.04-1.19-1.07-2.1-2.3-2.53-4.02.03-.13.01-.24-.09-.33-.48-2.26-.69-4.54-.42-6.87.1-.1.1-.22.04-.34.17-2.54.98-4.68,2.69-6.26,1.07-.99,2.34-1.4,3.63-1.6,1.64-.26,3.3-.24,4.93.24,2.85.84,4.64,3.27,5.12,7,.16,1.27.29,2.55.21,3.84-.02.03-.07.06-.07.09,0,.08.04.15.06.22Zm-7.22,5.87c1.54-.44,2.62-1.52,3.03-3.41.5-2.32.52-4.67,0-6.98-.51-2.27-1.84-3.45-3.8-3.53-.66-.03-1.31.03-1.96.24-1.37.44-2.68,2.06-2.76,3.69-.08,1.63-.17,3.28-.04,4.92.04.44-.09.93.05,1.31.63,1.81,1.39,3.5,3.25,3.76.14.17.29.28.47.06.43,0,.86,0,1.28,0,.18.22.33.11.47-.06Z" fill="#fff"/>
  <path d="m283.96,223c-1.22.12-2.05.96-2.47,2.26-.88,2.73-.89,5.53-.1,8.29.41,1.42,1.38,2.11,2.59,2.33,1.11.37,2.22.31,3.33.05.14,0,.27,0,.41,0,.37.18.75.4,1.05-.16,0-1.45,0-2.91,0-4.36-.13-.47-.47-.33-.74-.34-.98-.02-1.97,0-2.95,0-.36,0-.74.07-1.02-.31,0-.96,0-1.91,0-2.87.05-.08.1-.16.15-.25,2.49-.01,4.99-.01,7.48-.05.53,0,.69.2.69.84-.02,3.46-.02,6.91,0,10.37,0,.67-.2.81-.7.81-2.72-.03-5.43-.01-8.15-.04-.86-.01-1.72-.2-2.54-.52-1.52-.6-2.32-2.13-3.16-3.6-.33-.58-.56-1.21-.54-1.94.05-.15.02-.27-.1-.35-.3-1.84-.38-3.68-.16-5.54.1-.1.11-.22.04-.34.09-1.09.26-2.17.61-3.19.94-2.69,2.74-3.99,5.03-4.48.32-.07.65-.11.98-.17.39.21.79.11,1.19.12,2.49.02,4.98.03,7.46.05.04,1.05.07,2.1-.02,3.15-2.37,0-4.74,0-7.11.01-.43,0-.88-.13-1.27.23Z" fill="#fff"/>
  <path d="m333.33,260.37c0-.43,0-.86,0-1.28.19-.36.16-.75.07-1.13.13-1.01.14-2.01.46-3.02.92-2.9,2.6-4.58,5.07-5.22.14-.04.28-.08.43-.12.26.16.5.07.73-.11,1.43-.1,2.86-.14,4.28.21,2.85.71,4.62,2.75,5.29,6.16.52,2.63.54,5.29.03,7.92-.78,4.02-3,6.21-6.5,6.51-1.04,0-2.08,0-3.11,0-1.61-.11-3.08-.72-4.33-1.96-.73-.73-1.23-1.73-1.6-2.79-.47-1.37-.71-2.79-.75-4.27.1-.3.12-.6-.05-.87Zm4.05,2.18c-.04,1.06.4,1.94.83,2.77.33.63.86,1.08,1.56,1.27.87.24,1.74.33,2.62.24,1.57-.15,2.66-1.12,3.26-2.89.3-.87.38-1.8.5-2.71.09-.11.1-.22.03-.35.05-1.16,0-2.31-.16-3.45-.21-1.43-.61-2.75-1.63-3.66-2.57-2.28-6.28-.62-6.98,3.12-.33,1.75-.31,3.52-.09,5.29-.07.14-.03.26.06.36Z" fill="#fff"/>
  <path d="m147.35,219.44c1.25.26,2.46.49,3.61,1.36,1.05.8,1.77,1.78,2.3,3.06.43,1.04.65,2.17.76,3.31.23,2.35.24,4.68-.35,6.97-.34,1.32-.98,2.53-1.76,3.36-1.11,1.18-2.44,2.11-4.07,2.09-2.86-.04-5.73,0-8.59.04-.6,0-.63-.34-.63-.89.01-3.59,0-7.18,0-10.78,0-2.79.03-5.58.04-8.38,2.5,0,4.99,0,7.49-.02.4,0,.81.1,1.19-.12Zm-5.19,16.13c-.13.11-.12.22,0,.32.05.06.1.18.15.18,1.54,0,3.1.19,4.62-.04,2.01-.3,3.02-1.56,3.23-3.88.04-.44.09-.88.13-1.32.09-.11.1-.22.02-.35,0-.59,0-1.18,0-1.76,0-.13,0-.25-.01-.38-.07-.65-.11-1.32-.22-1.96-.37-2.19-1.13-3.02-3-3.37-.13-.06-.26-.18-.4-.18-1.38-.02-2.75-.02-4.13-.02-.15,0-.27.09-.35.25-.02.49-.05.97-.05,1.46,0,3.68,0,7.36-.01,11.05Z" fill="#fff"/>
  <path d="m237.93,227.03c-.15-.96-.14-1.91-.01-2.87.16-.16.16-.37.1-.59.31-2.09,1.56-3.49,3.52-3.94.36-.08.73-.13,1.09-.19.39.21.8.12,1.2.12,3.01,0,6.03,0,9.04,0,.02.84.05,1.68.05,2.52,0,.92-.02.94-.82.94-2.57,0-5.15,0-7.72,0-.51,0-1.02,0-1.52.22-.97.44-1.37,1.21-1.29,2.6.06,1.1.52,1.71,1.52,1.93.32.07.66.07.99.07,1.54,0,3.09,0,4.63,0,.63,0,1.24.06,1.86.24,1.92.54,2.86,1.69,3.12,4.05.17,1.49.09,2.98-.42,4.38-.4,1.12-1.06,1.97-2.02,2.42-.86.4-1.75.64-2.68.65-3.09.01-6.18.01-9.26,0-.78,0-.78-.02-.79-.94,0-.62.02-1.24,0-1.86-.02-.56.15-.83.63-.79.26.02.51,0,.77,0,2.32,0,4.63,0,6.95-.01.55,0,1.11-.01,1.65-.12.94-.19,1.53-1.13,1.53-2.32,0-.91-.54-2-1.52-2.06-.47-.03-.95-.12-1.42-.12-1.54,0-3.09-.02-4.63-.04-.78,0-1.54-.21-2.25-.59-1.22-.65-2-1.74-2.2-3.38.05-.14.04-.26-.07-.35Z" fill="#fff"/>
  <path d="m35.14,235.92c1.54-.05,2.06-1.76,1.54-3.26-.21-.61-.54-.93-1.02-1.07-.5-.14-1.01-.23-1.53-.22-1.21.02-2.43.01-3.64,0-.55,0-1.1,0-1.65-.07-2.66-.29-4.05-2.07-4.15-5.27-.01-.4,0-.8.01-1.2.16-3.13,1.48-4.84,4.08-5.26.25-.04.51-.1.76-.14.38.22.79.13,1.19.13,3,.03,6,.04,8.99.06,0,.84-.01,1.69.04,2.53.04.71-.2.9-.76.9-2.61-.03-5.22-.01-7.83-.01-.55,0-1.1,0-1.62.27-.83.42-1.24,1.25-1.19,2.45.05,1.13.49,1.76,1.46,2.01.35.09.73.09,1.09.1,1.62.01,3.23,0,4.85.01.81,0,1.6.17,2.37.49,1.09.45,1.8,1.33,2.13,2.65.41,1.66.42,3.32.02,4.98-.36,1.46-1.15,2.46-2.31,3.01-.86.41-1.76.6-2.69.6-3.05,0-6.1,0-9.15,0-.78,0-.81-.02-.79-.93.01-.83-.29-1.87.14-2.45.45-.6,1.32-.19,2-.21,2.46-.05,4.92-.05,7.38-.07.1.17.18.12.26-.03Z" fill="#fff"/>
  <path d="m267.62,269.95c-2.24,0-4.49.07-6.73,0-3.63-.1-6.07-2.69-6.67-7.02-.17-1.27-.27-2.56-.14-3.85.09-.11.1-.22.02-.35.03-1.15.19-2.28.48-3.38.78-3.05,2.51-4.77,5.07-5.35.29-.07.58-.12.87-.17.4.2.79.16,1.17-.07,1.91,0,3.81,0,5.72,0,.08.08.17.14.27.05.06.02.09.06.09.13-.09.12-.07.24.02.34-.01.94-.02,1.89-.03,2.83-1.83.01-3.66.02-5.5.04-.43,0-.89-.12-1.27.24-1.98.52-2.82,1.82-2.87,4.57,3.17.02,6.33.04,9.5.06.04.18.03.39.17.53,0,.71-.03,1.42.02,2.12.04.68-.22.82-.71.81-2.64-.02-5.28,0-7.92,0-1.22,0-1.25-.2-1.06,1.43.25,2.13,1.05,3.08,2.82,3.44.8.16,1.61.12,2.41.13,1.43.02,2.86.04,4.29.05.05.1.1.2.16.3,0,.95,0,1.91,0,2.86-.06.09-.11.17-.17.26Z" fill="#fff"/>
  <path d="m169.19,219.52c.14,1.09.13,2.18,0,3.28-1.77,0-3.53,0-5.3,0-.39,0-.81-.13-1.17.2-2.12.41-2.97,1.62-3.14,4.46.29.26.64.14.96.14,2.65.01,5.29,0,7.94.02.78,0,.79.02.8.96,0,.8-.03,1.59-.04,2.39-2.87.02-5.73.03-8.6.05-.29,0-.59,0-.88.04-.28.04-.34.28-.27.58.06.48.09.97.18,1.45.29,1.52,1.03,2.51,2.34,2.81.54.12,1.08.22,1.64.22,1.58-.01,3.16,0,4.74,0,.87,0,.89.02.88.98,0,.79.28,1.78-.14,2.31-.42.54-1.25.18-1.9.19-1.36.03-2.72-.03-4.08.02-1.25.04-2.46-.24-3.67-.57-.43-.12-.77-.45-1.08-.82-.95-1.1-2.02-2.09-2.37-3.72-.2-.93-.28-1.91-.41-2.86.02-.04.05-.08.05-.11-.01-.08-.05-.15-.07-.23-.12-.96-.12-1.92-.01-2.88.13-.19.13-.39.04-.6.02-.8.15-1.59.32-2.36.73-3.36,2.63-5.39,5.47-5.87.36-.06.73-.12,1.09-.18.14.05.28.14.41.14,2.09,0,4.18-.02,6.27-.04Z" fill="#fff"/>
  <path d="m114.15,253.39c-2.04.44-2.94,1.75-3.04,4.44.28.3.62.16.93.16,2.61.01,5.22,0,7.83.01.91,0,.94.01.92,1.05-.02.78.29,1.77-.17,2.29-.41.46-1.19.14-1.81.14-2.28.02-4.56,0-6.84,0-.96,0-.98.04-.88,1.21.18,2.22,1.07,3.35,2.89,3.65,1.87.3,3.74.08,5.62.13,1.36.04,1.19-.12,1.2,1.4q.01,2.11-1.71,2.1c-1.69,0-3.38.03-5.07-.03-.88-.03-1.86.07-2.6-.37-1.4-.84-2.7-1.97-3.41-3.8-.27-.69-.5-1.39-.64-2.12-.5-2.67-.52-5.43.06-8,.5-2.26,1.69-4.21,3.69-5.12.76-.35,1.55-.54,2.35-.69.47.18.94.16,1.39-.09,1.71,0,3.42-.01,5.13,0,.81,0,.82.02.82,1.03,0,.79-.03,1.58-.05,2.37-1.81,0-3.63,0-5.44.01-.39,0-.8-.12-1.15.22Z" fill="#fff"/>
  <path d="m36.23,269.99c-.1-.51.12-.85.25-1.21,2.1-6,4.22-11.99,6.29-18,.27-.79.59-1.11,1.28-1.04.66.07,1.33.07,1.98,0,.67-.08.97.26,1.21.98,1.23,3.6,2.51,7.18,3.78,10.77.89,2.53,1.78,5.05,2.67,7.58.08.24.24.46.13.92-1.11,0-2.26,0-3.41,0-.39,0-.44-.39-.54-.72-.36-1.12-.73-2.23-1.06-3.35-.16-.53-.38-.75-.88-.74-1.98.04-3.97.04-5.95,0-.55-.01-.77.25-.94.83-.3,1.09-.69,2.15-.99,3.24-.15.55-.37.79-.86.76-.99-.04-1.98-.01-2.95-.01Zm7.08-8.44c1.17,0,2.33,0,3.5,0,.18.18.34.22.45-.09-.31-1.64-.96-3.14-1.44-4.71-.26-.88-.57-1.74-.95-2.9-.81,2.56-1.53,4.82-2.25,7.08-.15.19-.32.42-.09.64.24.24.52.19.78-.03Z" fill="#fff"/>
  <path d="m392.81,219.62c0,1.05,0,2.1,0,3.15-1.82.01-3.63.01-5.45.04-.39,0-.81-.12-1.16.21-1.86.44-2.76,1.55-3.03,3.75-.09.77-.06.84.59.84,2.49.02,4.98.01,7.47.01.15,0,.29,0,.44,0,1.29.01,1.18-.18,1.18,1.41,0,.66-.03,1.32-.05,1.98-2.9,0-5.79,0-8.69.01-.33,0-.75-.24-.98.3,0,.18-.02.36,0,.53.13,2.79,1.2,4.09,3.53,4.23.95.06,1.91.02,2.87.02.92,0,1.84.02,2.76,0,.42-.01.6.16.58.69-.05.88.28,1.96-.13,2.59-.4.61-1.31.19-1.99.21-1.58.04-3.16.03-4.74,0-3.38-.08-5.3-2.05-6.51-5.62-.19-.55-.19-1.21-.24-1.82-.21-2.36-.18-4.7.38-7,.79-3.24,2.62-5.03,5.34-5.55.33-.06.65-.11.98-.17.38.22.79.12,1.19.12,1.9.03,3.8.04,5.69.06Z" fill="#fff"/>
  <path d="m235.64,219.56c.08,1.08.11,2.16-.01,3.24-1.83,0-3.66-.01-5.48,0-.39,0-.81-.11-1.16.22-2.01.54-2.7,1.56-2.98,4.4.26.33.61.18.92.18,2.61.02,5.22,0,7.82.02.94,0,.96.01.95,1.18,0,.75.1,1.51-.09,2.24-2.94,0-5.89-.02-8.83-.01-.29,0-.68-.2-.83.35.01.94.15,1.85.46,2.72.36,1.01,1.02,1.54,1.89,1.78,1.13.31,2.27.22,3.4.23,1.14.01,2.28.02,3.42,0,.43,0,.56.17.59.68.16,2.82.17,2.82-2.12,2.81-1.62,0-3.24-.02-4.85-.01-2.73,0-4.68-1.67-6.01-4.37-.45-.92-.59-2.16-.63-3.31.02-.04.05-.09.04-.12-.02-.08-.06-.15-.09-.23-.14-1.05-.11-2.09-.05-3.14.2-.27.19-.56.09-.87.04-.42.09-.84.13-1.25.12-.08.15-.2.09-.35.61-4.04,2.65-5.72,5.43-6.33.32-.07.65-.11.97-.17.35.2.72.12,1.09.12,1.95,0,3.89,0,5.84,0Z" fill="#fff"/>
  <path d="m88.88,269.99c-1.15,0-2.24-.02-3.34.01-.42.01-.58-.25-.71-.65-.35-1.12-.74-2.22-1.06-3.36-.17-.6-.41-.83-.95-.82-1.98.04-3.97.04-5.95,0-.5-.01-.72.23-.87.75-.31,1.09-.67,2.16-.98,3.25-.16.56-.37.87-.93.84-.95-.06-1.91-.02-2.83-.02-.26-.36-.03-.63.06-.88,2.15-6.17,4.32-12.33,6.46-18.51.21-.62.48-.9,1.05-.86.77.06,1.54.04,2.31,0,.45-.02.73.11.93.67,2.21,6.33,4.45,12.64,6.68,18.96.05.16.06.33.11.61Zm-11.35-8.54c.02.22.1.24.23.09,1.47-.01,2.93-.02,4.4-.04.04.09.11.12.15.04.09-.15.08-.3-.08-.38-.77-2.36-1.54-4.73-2.42-7.39-.76,2.8-1.72,5.15-2.28,7.67Z" fill="#fff"/>
  <path d="m392.34,269.99c-1.05,0-2.08-.03-3.1.01-.51.02-.7-.26-.86-.78-.32-1.09-.71-2.14-1.02-3.23-.17-.59-.4-.83-.95-.82-1.99.04-3.97.04-5.96,0-.5,0-.72.23-.87.76-.31,1.09-.68,2.15-.98,3.25-.16.59-.4.85-.94.83-.95-.05-1.91-.01-2.84-.01-.2-.44.03-.74.14-1.05,2.13-6.09,4.27-12.17,6.38-18.27.23-.66.48-1,1.12-.93.73.08,1.47.06,2.2,0,.57-.05.85.25,1.06.86,1.18,3.4,2.38,6.78,3.57,10.16.98,2.77,1.95,5.55,2.93,8.32.09.24.22.47.1.9Zm-11.21-8.52c.04.21.13.23.24.07,1.31,0,2.62,0,3.94,0,.17.19.33.21.46-.06,0-.13.04-.27,0-.38-.75-2.34-1.51-4.67-2.36-7.26-.82,2.6-1.57,4.97-2.32,7.34-.14.12-.18.23.03.29h0Z" fill="#fff"/>
  <path d="m146.27,269.99c.27-.81.47-1.42.68-2.03,1.36-3.88,2.72-7.76,4.08-11.63.64-1.82,1.31-3.63,1.9-5.47.26-.8.56-1.25,1.35-1.12.61.1,1.25.08,1.87,0,.7-.08,1.03.26,1.3,1.03,1.45,4.22,2.95,8.41,4.43,12.61.62,1.75,1.24,3.5,1.86,5.26.14.4.34.78.35,1.35-1.14,0-2.23-.02-3.32,0-.42,0-.56-.26-.69-.68-.34-1.12-.73-2.23-1.06-3.36-.17-.59-.43-.81-.96-.8-1.95.04-3.9.04-5.84,0-.59-.01-.83.26-1.01.91-.29,1.1-.69,2.15-.99,3.24-.14.51-.36.7-.8.68-.99-.03-1.98,0-3.14,0Zm7.01-8.44c1.31,0,2.63,0,3.94,0,.12.15.2.14.23-.08-.33-1.69-.99-3.22-1.48-4.83-.25-.84-.54-1.66-.91-2.78-.82,2.57-1.53,4.83-2.25,7.08-.15.19-.32.4-.1.64.18.2.38.15.57-.03Z" fill="#fff"/>
  <path d="m304.28,219.6c1.81,5.09,3.68,10.15,5.37,15.3.43,1.33.94,2.63,1.41,3.95.08.22.09.43,0,.75-1.02,0-2.08-.01-3.14,0-.35,0-.52-.17-.64-.56-.35-1.16-.76-2.29-1.09-3.47-.17-.61-.43-.81-.95-.8-1.95.03-3.9,0-5.85.02-.86,0-1.01.17-1.19,1.14-.04.21-.03.44-.09.65-.28,1-.49,2.13-1.13,2.81-.54.58-1.41.15-2.13.19-.43.03-.88.1-1.29-.07-.28-.51.08-.9.21-1.23,2.36-6.1,4.41-12.36,6.62-18.54.03-.08.08-.14.13-.21,1.26.02,2.52.04,3.78.05Zm.45,11.51c-.85-2.59-1.64-5.01-2.5-7.65-.84,2.69-1.6,5.11-2.39,7.65h4.89Z" fill="#fff"/>
  <path d="m82.63,219.55c.14,2.21.03,4.42.06,6.63.04,2.35-.11,4.7.12,7.03.19,1.93.93,2.89,2.42,3.22.09.11.18.15.29.04.63.13,1.25.14,1.88,0,.11.11.2.07.29-.04,1.6-.5,2.36-1.79,2.47-3.75.1-1.85.03-3.71.05-5.56.03-2.51-.06-5.03.06-7.54,1.13-.02,2.27-.03,3.4-.05.13,4.96.22,9.93-.07,14.89-.15,2.65-2.06,4.59-4.5,5.14-1.71.39-3.42.28-5.15.05-1.49-.2-2.65-.95-3.67-2.19-.55-.67-.83-1.46-.91-2.42-.16-1.77-.16-3.54-.15-5.32.01-3.37.03-6.74.04-10.11,1.13-.01,2.25-.03,3.38-.05Z" fill="#fff"/>
  <path d="m208.24,219.6c1.51,4.9,3.42,9.6,4.77,14.59.4-.01.42-.46.52-.73.83-2.38,1.61-4.78,2.46-7.15.81-2.25,1.48-4.56,2.4-6.75,1.2-.08,2.4.15,3.59-.13.05.01.08.05.07.11-.03.11-.06.22-.09.33-.42,1.45-.96,2.83-1.5,4.21-1.02,2.61-1.7,5.38-2.68,8.01-.82,2.21-1.57,4.47-2.32,6.72-.19.57-.43.84-.96.8-.69-.05-1.4-.08-2.09,0-.71.08-1.02-.3-1.28-1.05-1.81-5.07-3.67-10.11-5.5-15.17-.42-1.15-.92-2.27-1.2-3.49.21-.43.56-.36.88-.36.99,0,1.97.02,2.96.03Z" fill="#fff"/>
  <path d="m273.74,258.34c-.14,1.28-.16,2.57,0,3.85-.08.14-.04.26.05.37.42,2.81,1.36,3.82,3.82,3.91,1.58.06,3.16.01,4.74.02,1.36,0,1.18-.12,1.19,1.41.01,2.09,0,2.09-1.72,2.09-1.73,0-3.45.02-5.18-.02-1.42-.03-2.75-.43-3.94-1.45-1.71-1.47-2.51-3.56-2.77-5.97-.25-2.35-.17-4.69.35-6.99.44-1.92,1.34-3.5,2.69-4.54.94-.72,2.09-1.01,3.22-1.16.33.18.65.16.95-.08,1.83,0,3.67-.02,5.5-.01.87,0,.88.02.89,1.11,0,.53-.02,1.07,0,1.59.03.58-.15.78-.63.77-1.21-.03-2.42-.01-3.63,0-.59,0-1.17-.02-1.76.01-1.96.12-3.01,1.15-3.52,3.45-.09.43-.14.87-.21,1.3-.09.11-.12.23-.04.36Z" fill="#fff"/>
  <path d="m325.06,222.82c-1.65.01-3.3.02-4.96.03-.33,0-.66-.01-.99.02-2,.23-3,1.22-3.45,3.58-.44,2.32-.5,4.65.05,6.97.34,1.43,1.12,2.2,2.3,2.49.58.14,1.16.21,1.75.21,1.62-.01,3.23,0,4.85-.01.46,0,.67.15.64.75-.03.71-.01,1.42,0,2.13,0,.35-.04.63-.4.62-2.67-.1-5.36.23-8.03-.21-1.29-.21-2.35-1.04-3.3-1.96-.76-.74-1.12-1.95-1.46-3.06-.38-1.21-.53-2.48-.54-3.78,0-.12,0-.24,0-.37,0-.23,0-.47,0-.7,0-.12,0-.25,0-.37,0-1.38.16-2.74.49-4.06.79-3.18,2.6-4.92,5.27-5.47.36-.07.73-.12,1.09-.18,1.69.3,3.4.07,5.09.12.54.02,1.09.12,1.61-.13.07,0,.12.05.13.13-.02.04-.05.08-.04.11.02.08.05.15.08.22,0,.88,0,1.76,0,2.63-.06.1-.12.2-.18.3Z" fill="#fff"/>
  <path d="m187.89,249.75c-.05.64-.35.94-.54,1.29-1.64,2.9-3.27,5.81-4.96,8.65-.57.96-.81,1.91-.79,3.08.05,2.09.02,4.18,0,6.27,0,.92-.02.93-.8.95-.66.01-1.33-.04-1.99.02-.6.05-.75-.25-.74-.92.02-2.22-.02-4.44.02-6.67.02-.93-.17-1.7-.62-2.47-1.71-2.95-3.38-5.93-5.05-8.9-.2-.35-.47-.67-.56-1.28,1.19,0,2.35,0,3.51,0,.42,0,.52.44.69.75,1.02,1.89,2.03,3.79,3.06,5.68.2.36.33.79.66,1.07.31-.12.39-.49.54-.76,1.09-1.99,2.19-3.98,3.25-6,.29-.55.61-.78,1.16-.75,1.03.05,2.06.01,3.16.01Z" fill="#fff"/>
  <path d="m84.52,52.95c0,1.3-.01,2.61-.02,3.91-.22.02-.44.07-.66.07-7.66,0-15.32,0-22.98,0-.33,0-.67.03-.92-.31,0-1.31,0-2.62.01-3.93.11-.03.13-.13.14-.24.51-.01,1.03-.04,1.54-.04,7.16,0,14.33,0,21.49,0,.4,0,.81.02,1.21.03.02.19.04.38.18.51Z" fill="#fff"/>
  <path d="m100.8,239.29c0-5.31,0-10.62,0-15.93.14-.17.09-.27-.09-.3h0c-.29-.4-.68-.23-1.02-.24-1.42-.03-2.83-.04-4.25-.05,0-1.05,0-2.1,0-3.15.51-.01,1.02-.04,1.53-.04,4.27-.01,8.55-.02,12.82-.04.2,1.05.09,2.11.07,3.17-1.46.21-2.92.03-4.38.1-.34.02-.74-.2-1,.28-.01,4.34-.02,8.67-.03,13.01,0,.88-.03,1.77,0,2.65.02.61-.1.89-.66.86-.95-.06-1.9-.04-2.85-.05-.05-.09-.09-.18-.14-.27Z" fill="#fff"/>
  <path d="m77.5,219.61c.06,1.05.06,2.11,0,3.16-1.42.01-2.84.01-4.26.05-.35,0-.74-.16-1.03.23-.16.47-.08.96-.09,1.45,0,4.57,0,9.14,0,13.71,0,1.61.08,1.38-1.2,1.4-.55,0-1.1,0-1.65,0-.79-.02-.8-.02-.8-.93,0-1.86,0-3.73,0-5.59,0-3.33-.02-6.65-.03-9.98-.18-.41-.51-.28-.78-.29-.88-.01-1.76.01-2.64,0-2.13-.05-1.81.47-1.83-2.25,0-.95.02-.98.8-.98,4.51,0,9.01.02,13.52.03Z" fill="#fff"/>
  <path d="m50.58,223.07c-.13,1.19-.05,2.39-.06,3.59-.01,3.95,0,7.9,0,11.85,0,1.09-.01,1.09-.89,1.1-.66,0-1.32.01-1.98,0-.78-.01-.79-.02-.8-.94,0-2.13,0-4.26,0-6.39,0-3.06-.02-6.12-.03-9.18-.26-.47-.67-.26-1.01-.27-1.43-.02-2.86-.01-4.29-.01h0c.04-1,.11-2-.05-3,0-.09.01-.17.05-.24,4.79,0,9.57.01,14.36.02.07,1.07.07,2.13,0,3.2-1.42,0-2.85,0-4.27.03-.34,0-.74-.18-1.02.25Z" fill="#fff"/>
  <path d="m238.96,253.17c-.08-1.05-.06-2.11-.02-3.16.47-.02.95-.05,1.42-.06,4.32-.01,8.64-.02,12.95-.02.09,1.09.15,2.19-.03,3.28-1.51,0-3.02-.02-4.52-.02-.27,0-.61-.14-.77.3,0,5.01-.02,10.02-.03,15.03,0,.31,0,.62,0,.93,0,.4-.16.54-.47.54-.92,0-1.84,0-2.75,0-.33,0-.45-.22-.44-.59,0-.31,0-.62,0-.93,0-4.52,0-9.05,0-13.57,0-.49-.04-.97-.06-1.46-.28-.44-.67-.24-1.01-.25-1.42-.03-2.84-.02-4.27-.02Z" fill="#fff"/>
  <path d="m269.12,219.89c0,.95-.01,1.89-.02,2.84-1.46.18-2.93.02-4.4.09-.34.02-.75-.2-1,.29,0,4.96-.02,9.91-.03,14.87,0,.31-.02.62,0,.93.03.5-.11.73-.55.71-.99-.04-1.98-.04-2.96-.05-.04-.1-.07-.19-.11-.29,0-5.29,0-10.58,0-15.88.07-.17.04-.29-.12-.34,0,0,0,0,0,0-.3-.38-.68-.22-1.03-.23-1.41-.03-2.83-.04-4.24-.06,0-1.05,0-2.09,0-3.14,3.97-.02,7.95-.03,11.92-.05.81,0,1.62-.04,2.42-.07,0,0,.03.04.03.04-.05.14-.01.26.09.35Z" fill="#fff"/>
  <path d="m255.58,56.89c0-1.3.01-2.6.02-3.9.48-.03.95-.08,1.43-.08,7.23,0,14.47,0,21.7,0,.44,0,.88.07,1.31-.1,0,0,.08.06.08.06-.15,1.06-.05,2.12-.07,3.18-.03,1.14-.02,1.16-1.01,1.16-7.48,0-14.96,0-22.44,0-.36,0-.74.07-1.02-.33Z" fill="#fff"/>
  <path d="m321.99,249.8c.92-.02,1.83,0,2.75-.06.56-.04.68.28.67.87-.02,2.75-.01,5.49,0,8.24,0,1.37,0,2.75.04,4.12.09,2.35.71,3.15,2.69,3.59.17.07.34.19.51.19,1.54.01,3.07.1,4.61-.05,0,0,.04.05.04.05-.06.22-.07.43.08.61,0,.34,0,.67,0,1.01-.27.49-.07,1.06-.18,1.58-2.2,0-4.4.15-6.6-.13-2.56-.33-4.57-2.89-4.66-6.18,0-.18-.02-.35-.02-.53.07-.22.07-.43-.02-.63,0-4.14,0-8.29,0-12.43.03-.08.07-.16.1-.24Z" fill="#fff"/>
  <path d="m324.87,44.93c-1.55-.06-2.72-1-3.44-2.72-.22-.52-.45-.95-.82-1.35-.81-.86-1.07-2.04-.75-3.27.56-2.1,1.51-3.95,3.46-4.36,2.18-.46,4.18.05,5.58,2.39.7,1.17,1.16,2.46,1.04,3.96-.06.79-.27,1.54-.85,1.91-.5.32-.72.82-1.01,1.33-.75,1.33-1.8,2.05-3.21,2.11Z" fill="#fff"/>
  <path d="m215.49,259.82c0-2.98,0-5.95,0-8.93,0-1.25,0-1.14.98-1.14.66,0,1.33.04,1.99-.01.61-.05.74.27.74.93-.01,6.13-.01,12.26,0,18.39,0,.64-.09.99-.72.95-.77-.06-1.55-.05-2.32,0-.56.04-.68-.24-.68-.85.02-3.11,0-6.22,0-9.33Z" fill="#fff"/>
  <path d="m141.35,259.79c0-3.02,0-6.03,0-9.05,0-.96.02-.97.77-.99.81-.01,1.62,0,2.42,0,.37,0,.55.16.53.62-.01.27,0,.53,0,.8,0,5.81,0,11.62,0,17.43,0,.18-.02.36,0,.53.09.75-.24.89-.77.86-.73-.04-1.47-.04-2.2,0-.56.03-.77-.18-.76-.89.03-2.13.01-4.26.01-6.39,0-.98,0-1.95,0-2.93Z" fill="#fff"/>
  <path d="m61.37,229.6c0,3.01,0,6.03,0,9.04,0,.93-.02.94-.78.96-.81.01-1.62-.01-2.42,0-.37,0-.55-.17-.51-.62,0-.09,0-.18,0-.27,0-6.12,0-12.24,0-18.35,0-.96.02-.97.78-.98.73-.02,1.47.03,2.2-.01.59-.04.75.25.75.92-.02,3.1,0,6.21,0,9.31Z" fill="#fff"/>
  <path d="m369.89,249.79c.92-.01,1.84-.04,2.76-.03.74,0,.76.02.76.99,0,2.4,0,4.8,0,7.19,0,3.69,0,7.37,0,11.06,0,.96-.02.97-.77.98-.74.01-1.47-.04-2.21.01-.59.04-.75-.24-.74-.92.02-3.06,0-6.13.01-9.19,0-3.29.01-6.57.02-9.86l.17-.24Z" fill="#fff"/>
  <path d="m274.47,219.61c.01,5.82.03,11.63.02,17.45,0,.82.32,1.87-.17,2.41-.43.47-1.27.12-1.92.14-.48.01-.95-.02-1.43-.04-.05-.09-.1-.18-.15-.27,0-6.54.01-13.09.02-19.63,1.21-.2,2.42-.1,3.64-.06Z" fill="#fff"/>
  <path d="m.25,220.13c.02-.16.04-.32.07-.48,1.22-.16,2.43-.11,3.65-.04,0,6.4.02,12.8.04,19.2,0,.52-.07.83-.59.81-.85-.04-1.69-.02-2.54,0-.41,0-.62-.15-.58-.69.03-.35,0-.71,0-1.07-.01-5.73-.03-11.46-.04-17.2.23-.18.23-.35,0-.53Z" fill="#fff"/>
  <path d="m181.38,239.3c0-6.55.01-13.09.02-19.64,1.21.06,2.43-.23,3.64-.05.01,6.39.01,12.78.04,19.17,0,.63-.14.87-.68.84-.95-.05-1.91-.04-2.86-.05-.05-.09-.1-.18-.16-.27Z" fill="#fff"/>
  <path d="m331.46,219.58c.01,1.77.04,3.54.04,5.31,0,4.56,0,9.12,0,13.68,0,1.02-.01,1.04-.82,1.04-.92,0-1.83-.03-2.75-.05,0-2.52,0-5.04,0-7.56,0-3.67,0-7.34,0-11.01,0-1.41,0-1.41,1.21-1.41.77,0,1.54.01,2.31.02Z" fill="#fff"/>
  <path d="m357.01,86.98c1.28.02,2.46.48,3.52,1.32,1.8,1.43,2.18,4.84.76,6.8-.89,1.23-2.07,1.45-3.32,1.2-1.06-.21-2.04-.72-2.85-1.6-.34-.36-.7-.59-1.14-.75-1.1-.38-1.46-1.09-1.41-2.46.1-3.16,2-4.45,4.44-4.52Z" fill="#fff"/>
  <path d="m289.29,180.17c-.25.24-.56.2-.85.2-.66,0-1.32,0-1.99,0-46.55,0-93.1,0-139.65-.02-.47,0-1.03.33-1.42-.31.44.02.88.07,1.32.07,47.16,0,94.33,0,141.49,0,.37,0,.73.03,1.1.05Z" fill="#fff"/>
  <path d="m156.41,30.74c.55.02,1.1.06,1.65.06,43.65,0,87.3,0,130.95,0,.46,0,.96-.18,1.39.2-.44.02-.88.06-1.32.06-43.79,0-87.57,0-131.36-.01-.44,0-.96.3-1.31-.31Z" fill="#fff"/>
  <path d="m138.66,12.34c0,.42-.3.46-.53.54-1.2.41-2.4.81-3.6,1.22-3.56,1.22-7.13,2.44-10.69,3.65-.31.11-.71.47-.92.16-.29-.41-.43-1-.54-1.54-.06-.26.19-.41.43-.49,4.9-1.65,9.8-3.32,14.7-4.98.73-.25,1.19.34,1.16,1.45Z" fill="#fff"/>
  <path d="m172.5,51.92c0,12.25,0,24.51,0,36.76,0,23.71,0,47.42,0,71.13,0,.71,0,1.42,0,2.13-.2-.11-.21-.34-.21-.56,0-.4,0-.8,0-1.2,0-35.55,0-71.09,0-106.64,0-.54-.21-1.15.2-1.63Z" fill="#fff"/>
  <path d="m126.29,180.09c-.1.23-.27.27-.46.27-.29,0-.59,0-.88,0-22.85,0-45.7,0-68.55,0-.54,0-1.11.16-1.62-.2.33-.02.66-.05.99-.05,23.14,0,46.29,0,69.43,0,.37,0,.74-.01,1.1-.02Z" fill="#fff"/>
  <path d="m54.76,31c.33-.3.71-.2,1.07-.2,19.01,0,38.03,0,57.04,0-.28.45-.67.24-1.01.24-2.83.02-5.66.01-8.49.01-15.87,0-31.75,0-47.62,0-.33,0-.66-.04-.99-.06Z" fill="#fff"/>
  <path d="m141.43,247.76c.7-1.21,1.33-2.29,1.95-3.39.21-.39.5-.47.85-.46.81.02,1.61,0,2.41,0,.14.47-.19.56-.36.73-.76.77-1.58,1.46-2.29,2.3-.7.82-1.47,1.08-2.56.81Z" fill="#fff"/>
  <path d="m345.59,214c-.91.9-1.86,1.73-2.71,2.71-.69.8-1.43.86-2.41.69.76-1.33,1.41-2.59,2.21-3.73.71.02,1.43.03,2.14.05.27.01.59-.11.77.28Z" fill="#fff"/>
  <path d="m374.92,244.36c-.9.89-1.85,1.73-2.7,2.69-.69.78-1.42.94-2.37.72.6-1.33,1.36-2.45,2.03-3.63.68-.02,1.36-.06,2.04-.04.34,0,.73-.18,1,.26Z" fill="#fff"/>
  <path d="m255.58,56.89c.28.39.66.33,1.02.33,7.48,0,14.96,0,22.44,0,.98,0,.98-.02,1.01-1.16.03-1.06-.08-2.12.07-3.18.28,1.35.08,2.73.12,4.09,0,.31-.16.48-.42.5-.26.01-.51.01-.77.01-7.47,0-14.93,0-22.4,0-.29,0-.59,0-.88-.05-.21-.05-.25-.28-.19-.53Z" fill="#fff"/>
  <path d="m59.94,56.63c.25.34.58.31.92.31,7.66,0,15.32,0,22.98,0,.22,0,.44-.04.66-.07-.2.59-.64.32-.96.32-2.24.03-4.49.01-6.73.01-5.22,0-10.45,0-15.67,0-.29,0-.59,0-.88-.02-.27-.03-.38-.22-.31-.55Z" fill="#fff"/>
  <path d="m124.58,116.37c7.83,0,15.66,0,23.49.02.41,0,.88-.25,1.22.28-2.24-.01-4.48-.03-6.72-.03-5.62,0-11.24,0-16.86-.01-.37,0-.81.24-1.12-.25Z" fill="#fff"/>
  <path d="m280.04,52.81c-.43.17-.87.1-1.31.1-7.23,0-14.47,0-21.7,0-.48,0-.95.05-1.43.08.19-.61.63-.32.95-.33,2.27-.03,4.54-.01,6.82-.01,5.17,0,10.33,0,15.5,0,.39,0,.81-.14,1.18.15Z" fill="#fff"/>
  <path d="m77.5,219.61c-4.51-.01-9.01-.03-13.52-.03-.77,0-.8.03-.8.98.02,2.71-.3,2.2,1.83,2.25.88.02,1.76,0,2.64,0,.28,0,.6-.12.78.29-1.54-.01-3.08-.01-4.62-.04-.83-.01-.87-.03-.84-1.04.02-.87-.33-1.96.19-2.54.46-.52,1.33-.16,2.02-.16,3.74-.02,7.48-.02,11.21,0,.36,0,.81-.28,1.09.28Z" fill="#fff"/>
  <path d="m331.46,219.58c-.77,0-1.54-.02-2.31-.02-1.21,0-1.21,0-1.21,1.41,0,3.67,0,7.34,0,11.01,0,2.52,0,5.04,0,7.56-.34-.23-.21-.63-.21-.96,0-6.03,0-12.06,0-18.08,0-1.19.02-1.19.97-1.2.73,0,1.47,0,2.2,0,.21,0,.45-.06.56.26Z" fill="#fff"/>
  <path d="m167.17,52.38c-5.51,0-11.01,0-16.52-.02-.39,0-.81.17-1.16-.21,5.7-.01,11.41-.02,17.11-.03.21,0,.45-.06.56.26Z" fill="#fff"/>
  <path d="m410.49,239.58c.01-2.52.03-5.04.04-7.56,0-3.67,0-7.35,0-11.02,0-.48-.05-.98.09-1.45.21.41.11.87.11,1.3,0,5.81.01,11.62,0,17.43,0,.43.25.98-.24,1.3Z" fill="#fff"/>
  <path d="m55.87,219.6c-4.79,0-9.57-.01-14.36-.02.15-.37.44-.25.68-.25,4.34,0,8.67,0,13.01,0,.23,0,.53-.13.67.27Z" fill="#fff"/>
  <path d="m109.79,219.54c-4.27.01-8.55.02-12.82.04-.51,0-1.02.03-1.53.04.08-.35.33-.29.54-.29,4.44,0,8.89,0,13.33,0,.18,0,.37,0,.48.22Z" fill="#fff"/>
  <path d="m269,219.51c-.81.02-1.62.06-2.42.07-3.97.02-7.95.03-11.92.05.08-.36.33-.3.53-.3,4.47,0,8.95,0,13.42,0,.15,0,.29.04.39.19Z" fill="#fff"/>
  <path d="m253.32,249.93c-4.32,0-8.64.01-12.95.02-.47,0-.95.04-1.42.06.08-.36.33-.3.53-.3,4.45,0,8.91,0,13.36,0,.18,0,.37,0,.48.22Z" fill="#fff"/>
  <path d="m39.73,219.62c-3-.02-6-.04-8.99-.06-.4,0-.81.09-1.19-.13.31-.18.65-.11.97-.11,2.75,0,5.5-.01,8.24,0,.32,0,.74-.26.96.3Z" fill="#fff"/>
  <path d="m252.86,219.56c-3.01,0-6.03,0-9.04,0-.4,0-.81.1-1.2-.12.18-.04.36-.12.53-.12,3.04,0,6.09-.01,9.13,0,.21,0,.45-.06.57.25Z" fill="#fff"/>
  <path d="m159.5,231.65c-.08-.3-.01-.54.27-.58.29-.04.59-.04.88-.04,2.87-.02,5.73-.03,8.6-.05-.25.51-.66.27-.99.27-2.55.02-5.11,0-7.67.02-.39,0-.82-.13-1.09.39Z" fill="#fff"/>
  <path d="m225.94,231.38c.15-.55.54-.35.83-.35,2.94,0,5.89,0,8.83.01-.3.37-.69.2-1.04.21-2.48.01-4.96,0-7.43,0-.4,0-.8-.05-1.19.12Z" fill="#fff"/>
  <path d="m383.12,231.33c.23-.53.65-.3.98-.3,2.9-.02,5.79-.01,8.69-.01-.29.41-.68.22-1.03.23-2.48.02-4.96,0-7.44.01-.4,0-.8.05-1.2.07Z" fill="#fff"/>
  <path d="m292.35,219.61c-2.49-.02-4.98-.03-7.46-.05-.4,0-.81.1-1.19-.12.35-.2.72-.13,1.08-.13,2.2,0,4.4-.02,6.6,0,.33,0,.74-.25.98.29Z" fill="#fff"/>
  <path d="m147.35,219.44c-.39.22-.8.12-1.19.12-2.5.01-4.99.01-7.49.02.08-.26.27-.26.45-.26,2.64,0,5.28,0,7.92.02.1,0,.21.07.31.1Z" fill="#fff"/>
  <path d="m283.96,223c.39-.36.84-.22,1.27-.23,2.37-.02,4.74-.01,7.11-.01-.12.3-.36.26-.57.26-2.6,0-5.2,0-7.8-.01Z" fill="#fff"/>
  <path d="m235.64,219.56c-1.95,0-3.89,0-5.84,0-.36,0-.74.08-1.09-.12.86-.28,1.75-.1,2.62-.13,1.17-.03,2.34-.02,3.51,0,.27,0,.6-.16.79.25Z" fill="#fff"/>
  <path d="m392.81,219.62c-1.9-.02-3.8-.03-5.69-.06-.4,0-.8.1-1.19-.12,1.12-.26,2.26-.08,3.39-.12.95-.03,1.9-.02,2.85,0,.23,0,.53-.13.64.3Z" fill="#fff"/>
  <path d="m260.99,253.4c.39-.36.84-.23,1.27-.24,1.83-.03,3.66-.03,5.5-.04-.14.37-.43.27-.67.27-2.03,0-4.07,0-6.1,0Z" fill="#fff"/>
  <path d="m386.19,223.01c.35-.33.77-.21,1.16-.21,1.82-.02,3.63-.03,5.45-.04-.07.27-.25.29-.44.29-2.06-.01-4.12-.03-6.17-.04Z" fill="#fff"/>
  <path d="m228.98,223.02c.35-.33.77-.22,1.16-.22,1.83-.01,3.66,0,5.48,0-.09.24-.27.25-.46.25-2.06-.01-4.13-.02-6.19-.03Z" fill="#fff"/>
  <path d="m162.73,223c.36-.32.78-.2,1.17-.2,1.77-.01,3.53,0,5.3,0,.01.26-.15.26-.29.26-2.06-.01-4.12-.03-6.19-.05Z" fill="#fff"/>
  <path d="m169.19,219.52c-2.09.01-4.18.03-6.27.04-.14,0-.28-.09-.41-.14,2.17-.21,4.35-.1,6.52-.06.05,0,.11.11.16.16Z" fill="#fff"/>
  <path d="m325.07,219.42c-.53.25-1.08.15-1.61.13-1.7-.06-3.4.18-5.09-.12,1.04-.25,2.09-.11,3.14-.11,1.19,0,2.38-.15,3.57.1Z" fill="#fff"/>
  <path d="m114.15,253.39c.35-.34.77-.21,1.15-.22,1.81-.02,3.63-.01,5.44-.01-.13.28-.36.25-.58.25-2.01,0-4.01-.01-6.02-.02Z" fill="#fff"/>
  <path d="m104.48,223.1c.26-.48.66-.26,1-.28,1.46-.07,2.92.1,4.38-.1-.13.58-.53.34-.81.34-1.52.03-3.05.03-4.57.04Z" fill="#fff"/>
  <path d="m263.7,223.11c.25-.49.66-.27,1-.29,1.47-.07,2.93.09,4.4-.09-.15.55-.54.32-.83.33-1.52.03-3.05.03-4.58.05Z" fill="#fff"/>
  <path d="m41.52,222.81c1.43,0,2.86-.01,4.29.01.34,0,.74-.2,1.01.27-1.47,0-2.93,0-4.4-.03-.3,0-.67.18-.9-.25Z" fill="#fff"/>
  <path d="m50.58,223.07c.28-.42.68-.24,1.02-.25,1.42-.03,2.85-.02,4.27-.03-.21.47-.58.27-.88.27-1.47.02-2.94,0-4.41,0Z" fill="#fff"/>
  <path d="m95.43,222.77c1.42.01,2.83.02,4.25.05.35,0,.73-.17,1.02.24-1.51,0-3.01.02-4.52,0-.26,0-.61.18-.76-.29Z" fill="#fff"/>
  <path d="m254.65,222.76c1.41.02,2.83.02,4.24.06.35,0,.73-.16,1.03.23-1.54,0-3.09.02-4.63.02-.23,0-.54.13-.64-.3Z" fill="#fff"/>
  <path d="m72.22,223.05c.29-.4.68-.22,1.03-.23,1.42-.03,2.84-.03,4.26-.05-.15.47-.5.29-.76.29-1.51.01-3.02,0-4.52-.01Z" fill="#fff"/>
  <path d="m238.96,253.17c1.42,0,2.84,0,4.27.02.34,0,.74-.19,1.01.25-1.46,0-2.93.01-4.39,0-.3,0-.67.19-.89-.27Z" fill="#fff"/>
  <path d="m248,253.49c.17-.44.5-.3.77-.3,1.51,0,3.02,0,4.52.02-.29.42-.68.22-1.02.23-1.42.03-2.85.04-4.27.05Z" fill="#fff"/>
  <path d="m333.25,266.71c-1.53.15-3.07.06-4.61.05-.17,0-.34-.13-.51-.19,1.58-.01,3.15-.02,4.73-.03.15,0,.29.04.39.18Z" fill="#fff"/>
  <path d="m358.49,261.16c.29.37.68.27,1.03.27.99,0,1.97,0,2.96.01.26,0,.61-.15.71.36-1.3-.25-2.62-.04-3.93-.13-.3-.02-.8.28-.78-.51Z" fill="#fff"/>
  <path d="m284.06,230.77c.28.38.66.31,1.02.31.98,0,1.97,0,2.95,0,.27,0,.61-.13.74.34-1.36-.18-2.71-.03-4.07-.09-.3-.01-.72.11-.64-.57Z" fill="#fff"/>
  <path d="m26.76,261.44c1.24,0,2.49-.01,3.73,0,.3,0,.67-.18.88.29-1.24-.02-2.47-.02-3.71-.06-.3,0-.66.18-.9-.24Z" fill="#fff"/>
  <path d="m192.1,232.68c-.22-1.79-.25-3.58-.05-5.37.15,1.79.13,3.58.05,5.37Z" fill="#fff"/>
  <path d="m11.96,219.56c-1.49,0-2.97.01-4.46.02.04-.07.08-.19.13-.2,1.39-.11,2.79-.11,4.18,0,.05,0,.1.12.15.18Z" fill="#fff"/>
  <path d="m357.51,219.59c-1.49-.02-2.97-.04-4.46-.06.15-.27.38-.22.59-.22,1.06,0,2.13,0,3.19,0,.24,0,.53-.1.67.28Z" fill="#fff"/>
  <path d="m193,219.59c-1.47,0-2.95,0-4.42,0,.76-.4,3.68-.4,4.42,0Z" fill="#fff"/>
  <path d="m400.38,219.53c-1.48.03-2.96.05-4.43.08.04-.2.15-.29.31-.29,1.28,0,2.57,0,3.85.02.09,0,.18.13.27.19Z" fill="#fff"/>
  <path d="m208.24,219.6c-.99-.01-1.97-.03-2.96-.03-.32,0-.67-.07-.88.36-.15-.19-.17-.53,0-.53,1.28,0,2.58-.38,3.83.21Z" fill="#fff"/>
  <path d="m185.04,219.61c-1.22-.18-2.43.11-3.64.05.01-.2.11-.33.27-.33,1.05,0,2.11,0,3.16.02.13,0,.16.14.2.26Z" fill="#fff"/>
  <path d="m326.57,111.89c1.27,0,2.53,0,3.8,0-1.27.37-2.53.39-3.8,0Z" fill="#fff"/>
  <path d="m340.26,240.06c.08-.16.21-.23.36-.23,1.15.02,2.29.03,3.44.05-.91.48-1.87.2-2.81.24-.33.01-.65-.04-.98-.06Z" fill="#fff"/>
  <path d="m3.97,219.61c-1.22-.07-2.43-.13-3.65.04.02-.2.12-.32.28-.32,1.06,0,2.11,0,3.17.02.13,0,.16.14.2.26Z" fill="#fff"/>
  <path d="m304.28,219.6c-1.26-.02-2.52-.04-3.78-.05.14-.29.37-.23.58-.24.88,0,1.76,0,2.64,0,.21,0,.45-.04.55.29Z" fill="#fff"/>
  <path d="m274.47,219.61c-1.21-.04-2.43-.14-3.64.06,0-.2.1-.33.27-.33,1.05,0,2.11,0,3.16.01.13,0,.16.14.21.26Z" fill="#fff"/>
  <path d="m345.59,214c-.18-.39-.5-.27-.77-.28-.71-.03-1.43-.04-2.14-.05.99-.45,2.02-.19,3.02-.14.32.02.1.36-.11.47Z" fill="#fff"/>
  <path d="m93.67,219.54c-1.13.02-2.27.03-3.4.05,0-.04,0-.13,0-.13,1.14-.2,2.27-.36,3.4.08Z" fill="#fff"/>
  <path d="m374.92,244.36c-.27-.44-.66-.25-1-.26-.68-.02-1.36.02-2.04.04.07-.09.15-.24.22-.25.94-.03,1.88-.08,2.81-.02.37.02.22.31,0,.48Z" fill="#fff"/>
  <path d="m410.54,219.44c-.75.23-1.52.07-2.27.12-.4.03-.79.07-1.19.1,0-.2.1-.33.26-.33,1.07.02,2.14-.17,3.21.11Z" fill="#fff"/>
  <path d="m221.97,219.43c-1.19.28-2.39.05-3.59.13.08-.08.16-.22.24-.22,1.12,0,2.24-.17,3.35.09Z" fill="#fff"/>
  <path d="m22.14,219.53c-1.17.03-2.35.07-3.52.1.03-.08.05-.22.08-.22,1.15-.09,2.3-.32,3.44.12Z" fill="#fff"/>
  <path d="m203.2,219.5c-1.17.05-2.33.09-3.5.14.03-.08.05-.22.08-.22,1.14-.12,2.29-.29,3.42.08Z" fill="#fff"/>
  <path d="m82.63,219.55c-1.13.02-2.25.03-3.38.05-.03-.17.05-.26.16-.26.99,0,1.97,0,2.96,0,.09,0,.17.13.25.21Z" fill="#fff"/>
  <path d="m367.68,219.57c-1.17.02-2.34.04-3.51.06.03-.12.06-.27.19-.27,1.06-.06,2.12-.09,3.18.02.05,0,.09.13.13.19Z" fill="#fff"/>
  <path d="m287.31,235.94c-1.11.26-2.23.32-3.33-.05,1.11-.05,2.22-.11,3.33.05Z" fill="#fff"/>
  <path d="m310.02,270.28c1.04,0,2.08,0,3.11-.01-1.04.37-2.08.39-3.11.01Z" fill="#fff"/>
  <path d="m117.24,239.9c1.05,0,2.1,0,3.16.01-1.05.36-2.1.37-3.16-.01Z" fill="#fff"/>
  <path d="m340.05,270.27c1.04,0,2.08,0,3.11,0-1.04.38-2.08.36-3.11,0Z" fill="#fff"/>
  <path d="m129.47,51.83c.27.31.07.5-.15.5-.86,0-1.73.2-2.57-.11.64-.2,1.3-.06,1.95-.11.27-.02.6.13.78-.28Z" fill="#fff"/>
  <path d="m228.32,270.27c1.04,0,2.08,0,3.11,0-1.04.38-2.08.37-3.11,0Z" fill="#fff"/>
  <path d="m223.49,51.95c-.97.25-1.93.2-2.9-.06.97-.09,1.93-.12,2.9.06Z" fill="#fff"/>
  <path d="m362.61,19.69c-.97.21-1.94.22-2.91-.01.97-.17,1.94-.19,2.91.01Z" fill="#fff"/>
  <path d="m326.39,3.95c-.97.23-1.94.22-2.91,0,.97-.18,1.94-.17,2.91,0Z" fill="#fff"/>
  <path d="m288.81,6.45c.9-.32,1.79-.32,2.69,0-.9.09-1.79.1-2.69,0Z" fill="#fff"/>
  <path d="m41.47,219.81c.16.99.09,1.99.05,2.99-.29-.99-.21-1.99-.05-2.99Z" fill="#fff"/>
  <path d="m355.96,112.13c.74,0,1.48,0,2.22,0-.74.34-1.48.31-2.22,0Z" fill="#fff"/>
  <path d="m225,161.93c.73-.34,1.48-.24,2.23-.2-.73.27-1.48.34-2.23.2Z" fill="#fff"/>
  <path d="m121.01,161.47c.61-.05,1.22-.15,1.79.19-.61.14-1.21.05-1.79-.19Z" fill="#fff"/>
  <path d="m58.72,261.48c-.21-.72-.23-1.44-.02-2.17.11.72.11,1.45.02,2.17Z" fill="#fff"/>
  <path d="m11.03,232.15c-.21-.72-.23-1.44-.02-2.17.11.72.11,1.45.02,2.17Z" fill="#fff"/>
  <path d="m18.69,225.17c.19.73.15,1.47.03,2.2-.2-.73-.18-1.47-.03-2.2Z" fill="#fff"/>
  <path d="m27.62,249.76c-.53.24-1.07.26-1.61.08.53-.22,1.07-.16,1.61-.08Z" fill="#fff"/>
  <path d="m66.39,254.74c.16.66.15,1.31.02,1.97-.19-.65-.19-1.31-.02-1.97Z" fill="#fff"/>
  <path d="m124.97,71.27c.42-.33.89-.27,1.35-.2-.44.23-.88.31-1.35.2Z" fill="#fff"/>
  <path d="m347.33,108.87c.45-.29.91-.43,1.37-.03-.46,0-.91.02-1.37.03Z" fill="#fff"/>
  <path d="m114.85,249.76c-.45.25-.92.26-1.39.09.46-.22.92-.18,1.39-.09Z" fill="#fff"/>
  <path d="m407.11,222.47c.15.57.14,1.13.02,1.7-.19-.56-.19-1.13-.02-1.7Z" fill="#fff"/>
  <path d="m333.19,269.95c.11-.52-.09-1.09.18-1.58.02.54.32,1.13-.18,1.58Z" fill="#fff"/>
  <path d="m261.69,249.76c-.38.23-.77.27-1.17.07.38-.19.78-.16,1.17-.07Z" fill="#fff"/>
  <path d="m168.28,97.45c-.37-.11-.78.1-1.12-.2.39-.03.8-.31,1.12.2Z" fill="#fff"/>
  <path d="m356.46,225.25c-.05-.23-.2-.57.08-.63.23-.05.32.28.32.55-.13.03-.27.05-.4.08Z" fill="#fff"/>
  <path d="m288.77,235.78c-.3.56-.68.34-1.05.16.35-.05.7-.11,1.05-.16Z" fill="#fff"/>
  <path d="m297.42,263.3c.07.24.14.61-.05.65-.27.07-.37-.28-.38-.59.15.08.3.02.43-.06Z" fill="#fff"/>
  <path d="m.25,220.13c.23.18.23.35,0,.53-.33-.18-.33-.35,0-.53Z" fill="#fff"/>
  <path d="m337.86,104.16c-.29.23-.59.31-.91.07.3-.15.6-.15.91-.07Z" fill="#fff"/>
  <path d="m324.36,10.72c.29-.27.61-.25.94-.15-.29.24-.61.26-.94.15Z" fill="#fff"/>
  <path d="m333.39,257.95c.09.39.13.77-.07,1.13-.12-.39-.12-.77.07-1.13Z" fill="#fff"/>
  <path d="m127.66,142.07c-.31.25-.61.22-.91-.03.31-.09.61-.1.91.03Z" fill="#fff"/>
  <path d="m333.64,111.54c.28-.27.6-.26.92-.19-.28.25-.59.3-.92.19Z" fill="#fff"/>
  <path d="m277.14,249.77c-.3.24-.62.26-.95.08.31-.2.63-.17.95-.08Z" fill="#fff"/>
  <path d="m18.78,232.93c.06.21.12.55-.03.6-.33.1-.36-.29-.42-.57.15.08.31.08.45-.03Z" fill="#fff"/>
  <path d="m86.98,112.09c.07.2.08.4.01.6-.34-.19-.4-.38-.01-.6Z" fill="#fff"/>
  <path d="m297.38,259.01c.11.3.11.6.01.9-.16-.3-.17-.6-.01-.9Z" fill="#fff"/>
  <path d="m364.28,229.14c.11.3.11.6,0,.9-.16-.3-.17-.6,0-.9Z" fill="#fff"/>
  <path d="m333.33,260.37c.17.28.15.57.05.87-.17-.28-.17-.57-.05-.87Z" fill="#fff"/>
  <path d="m339.16,239.62c.26-.03.52-.1.67.26-.23-.05-.5.03-.67-.26Z" fill="#fff"/>
  <path d="m340.07,249.48c-.23.18-.46.28-.73.11.22-.2.47-.18.73-.11Z" fill="#fff"/>
  <path d="m280.65,4.11c-.03.28.11.61-.14.84,0-.29-.23-.64.14-.84Z" fill="#fff"/>
  <path d="m327.66,10.58c.26-.1.51-.1.72.14-.26.11-.5.08-.72-.14Z" fill="#fff"/>
  <path d="m357.96,19.88c-.23.19-.47.27-.73.08.23-.16.48-.15.73-.08Z" fill="#fff"/>
  <path d="m373.58,90.28c-.18-.28-.18-.57,0-.85.09.28.09.56,0,.85Z" fill="#fff"/>
  <path d="m353.11,98.62c-.25.24-.47.14-.69-.06.24-.07.47-.07.69.06Z" fill="#fff"/>
  <path d="m335.22,104.43c-.23.21-.47.26-.73.07.23-.16.48-.15.73-.07Z" fill="#fff"/>
  <path d="m66.48,263.07c.02.27.25.62-.18.73.06-.24.12-.49.18-.73Z" fill="#fff"/>
  <path d="m252.1,135.89c-.18-.3-.11-.58.06-.85.07.29.06.57-.06.85Z" fill="#fff"/>
  <path d="m289.92,186.74c.22-.23.47-.24.73-.13-.22.25-.47.21-.73.13Z" fill="#fff"/>
  <path d="m199.78,225.14c.11.3.11.6.01.9-.16-.3-.17-.6-.01-.9Z" fill="#fff"/>
  <path d="m110.58,227.55c.1.3.11.6-.06.87-.11-.31-.1-.6.06-.87Z" fill="#fff"/>
  <path d="m222.09,227.55c.1.31.11.61-.09.87-.09-.31-.08-.6.09-.87Z" fill="#fff"/>
  <path d="m125.01,97.25c-.15.07-.3.14-.45.21.06-.35.26-.28.45-.21Z" fill="#fff"/>
  <path d="m19.61,259.02c.07.22.07.43-.02.64-.14-.22-.13-.43.02-.64Z" fill="#fff"/>
  <path d="m351.5,257.69c.08.22.08.42-.07.6-.09-.22-.07-.42.07-.6Z" fill="#fff"/>
  <path d="m87.63,95.28c.08.22.07.43-.08.6-.09-.22-.06-.42.08-.6Z" fill="#fff"/>
  <path d="m221.65,257.95c.09.21.09.42-.05.61-.11-.22-.09-.42.05-.61Z" fill="#fff"/>
  <path d="m155.63,227.82c.08.21.09.41-.04.6-.11-.21-.09-.41.04-.6Z" fill="#fff"/>
  <path d="m251.9,83.35c-.17-.21-.1-.39.03-.58.06.2.05.39-.03.58Z" fill="#fff"/>
  <path d="m84.52,52.95c-.14-.13-.16-.32-.18-.51.29.05.25.27.18.51Z" fill="#fff"/>
  <path d="m35.02,250.06c-.12-.1-.23-.2-.35-.3.2-.05.38-.06.35.3Z" fill="#fff"/>
  <path d="m267.79,258.56c-.14-.14-.13-.34-.17-.53.3.06.24.29.17.53Z" fill="#fff"/>
  <path d="m364.33,233.16c.06.15.08.37-.03.43-.15.08-.21-.1-.22-.27.08-.05.16-.11.25-.16Z" fill="#fff"/>
  <path d="m107.74,114.28c-.14-.18-.19-.37-.03-.57.08.19.08.38.03.57Z" fill="#fff"/>
  <path d="m238.02,223.57c.06.22.06.42-.1.59-.08-.23-.03-.42.1-.59Z" fill="#fff"/>
  <path d="m364.41,19.96c-.19.16-.35.07-.5-.08.18-.07.35-.06.5.08Z" fill="#fff"/>
  <path d="m110.54,230.5c.13.19.13.4.05.61-.14-.19-.16-.39-.05-.61Z" fill="#fff"/>
  <path d="m107.71,102.55c-.17-.2-.11-.39.03-.58.06.2.05.39-.03.58Z" fill="#fff"/>
  <path d="m251.93,78.54c-.13-.18-.19-.37-.03-.57.08.19.08.38.03.57Z" fill="#fff"/>
  <path d="m301.36,165.41c.09.22.09.43-.07.61-.08-.22-.07-.42.07-.61Z" fill="#fff"/>
  <path d="m321.88,262.48c.09.21.09.42.02.63-.15-.2-.16-.42-.02-.63Z" fill="#fff"/>
  <path d="m333.37,267.36c-.14-.18-.14-.39-.08-.61.19.17.16.39.08.61Z" fill="#fff"/>
  <path d="m87.41,97.68c.08.21.08.42-.06.6-.1-.22-.08-.42.06-.6Z" fill="#fff"/>
  <path d="m289.55,255.39c-.06-.15-.12-.34.05-.41.11-.05.15.12.15.25-.07.05-.14.1-.21.16Z" fill="#fff"/>
  <path d="m87.44,96.37c-.06.1-.12.2-.18.3-.05-.19.03-.27.18-.3Z" fill="#fff"/>
  <path d="m339.02,92.23c-.12,0-.23,0-.35,0,.11-.13.23-.13.35,0Z" fill="#fff"/>
  <path d="m259.92,223.05c.16.05.19.17.12.34-.04-.11-.08-.23-.12-.34Z" fill="#fff"/>
  <path d="m66.5,249.77c-.06.08-.12.17-.18.25-.05-.2.02-.28.18-.25Z" fill="#fff"/>
  <path d="m60.1,52.45c0,.11-.04.21-.14.24-.05-.17,0-.24.14-.24Z" fill="#fff"/>
  <path d="m42.79,46.02c-.13-.12-.09-.22.02-.32,0,.11-.01.21-.02.32Z" fill="#fff"/>
  <path d="m354.04,36.89c.12.08.15.2.09.35-.11-.09-.14-.2-.09-.35Z" fill="#fff"/>
  <path d="m372.22,33.53c-.07-.14-.03-.25.06-.36.05.14.03.26-.06.36Z" fill="#fff"/>
  <path d="m280.82,3.8c.02.17-.03.27-.17.3.02-.13.05-.26.17-.3Z" fill="#fff"/>
  <path d="m222.32,225.95c.06.15.02.27-.09.35-.05-.15-.02-.26.09-.35Z" fill="#fff"/>
  <path d="m237.93,227.03c.11.09.12.21.07.35-.1-.09-.14-.21-.07-.35Z" fill="#fff"/>
  <path d="m334.05,227.02c.07.13.06.24-.04.34-.08-.13-.06-.24.04-.34Z" fill="#fff"/>
  <path d="m267.68,249.82c-.1.09-.19.03-.27-.05.1-.07.19-.06.27.05Z" fill="#fff"/>
  <path d="m325.24,219.88c-.03-.07-.06-.14-.08-.22,0-.03.03-.07.04-.11.03.07.06.14.08.22,0,.03-.02.07-.04.11Z" fill="#fff"/>
  <path d="m277.08,227.28c.07.13.06.24-.04.34-.08-.13-.06-.24.04-.34Z" fill="#fff"/>
  <path d="m286.22,249.81c.01.1-.01.17-.08.22-.07-.06-.08-.14-.02-.21.02-.02.06-.01.1-.02Z" fill="#fff"/>
  <path d="m321.99,249.8c-.03.08-.07.16-.1.24-.12-.17-.07-.24.1-.24Z" fill="#fff"/>
  <path d="m369.89,249.79c-.06.08-.11.16-.17.24-.04-.18.02-.26.17-.24Z" fill="#fff"/>
  <path d="m284.22,227.65c-.05.08-.1.16-.15.25-.05-.18,0-.25.15-.25Z" fill="#fff"/>
  <path d="m269.12,219.89c-.1-.09-.13-.2-.09-.35.13.08.15.2.09.35Z" fill="#fff"/>
  <path d="m267.79,250.29c-.09-.11-.12-.22-.02-.34.03.08.06.15.07.23,0,.03-.03.08-.05.11Z" fill="#fff"/>
  <path d="m311.52,229.15c0,.12,0,.25,0,.37-.13-.12-.12-.25,0-.37Z" fill="#fff"/>
  <path d="m100.71,223.06c.18.03.23.13.09.3-.03-.1-.06-.2-.09-.3Z" fill="#fff"/>
  <path d="m221.94,219.88c.03-.11.06-.22.09-.33.13.18.03.26-.09.33Z" fill="#fff"/>
  <path d="m350.61,230.56c-.02-.07-.05-.15-.06-.22,0-.03.05-.06.07-.09,0,.11-.01.21-.02.32Z" fill="#fff"/>
  <path d="m203.29,219.9c-.04-.07-.08-.14-.1-.22,0-.03.02-.08.04-.12.13.09.14.2.07.34Z" fill="#fff"/>
  <path d="m37.84,169.16c.12.08.15.2.1.35-.11-.09-.14-.2-.1-.35Z" fill="#fff"/>
  <path d="m155.6,231.3c.03.08.06.15.07.23,0,.03-.03.08-.05.11-.09-.1-.11-.22-.03-.35Z" fill="#fff"/>
  <path d="m222.05,231.56c.03.08.07.15.09.23,0,.03-.03.08-.04.12-.1-.1-.12-.22-.04-.35Z" fill="#fff"/>
  <path d="m42.83,165.74c-.02-.07-.06-.14-.07-.21,0-.03.04-.06.06-.09,0,.1,0,.2.01.3Z" fill="#fff"/>
  <path d="m87.15,116.36c.03.08.06.15.07.23,0,.03-.03.08-.05.11-.09-.11-.11-.22-.03-.35Z" fill="#fff"/>
  <path d="m85.52,236.48c-.11.11-.2.06-.29-.04.1-.06.2-.06.29.04Z" fill="#fff"/>
  <path d="m87.69,236.44c-.09.11-.18.15-.29.04.09-.1.19-.11.29-.04Z" fill="#fff"/>
  <path d="m221.63,261.17c.03.08.06.15.07.23,0,.03-.03.08-.05.11-.09-.11-.11-.22-.02-.34Z" fill="#fff"/>
  <path d="m23.56,258.34c-.09-.14-.05-.25.04-.36.06.13.05.25-.04.36Z" fill="#fff"/>
  <path d="m273.74,258.34c-.08-.14-.05-.25.04-.36.06.13.05.25-.04.36Z" fill="#fff"/>
  <path d="m277.2,233.16c.12.08.15.2.1.35-.11-.08-.15-.2-.1-.35Z" fill="#fff"/>
  <path d="m358.44,258.11s0,.08,0,.08c-.08.06-.18.04-.18-.06,0-.1.11-.1.18-.02Z" fill="#fff"/>
  <path d="m334.43,234.23c.1.08.12.19.09.33-.1-.08-.18-.17-.09-.33Z" fill="#fff"/>
  <path d="m254.1,258.74c.08.12.07.24-.02.35-.09-.12-.07-.24.02-.35Z" fill="#fff"/>
  <path d="m23.61,262.02c-.09-.11-.12-.23-.04-.36.03.08.06.16.07.24,0,.04-.02.08-.03.12Z" fill="#fff"/>
  <path d="m100.8,239.29c.05.09.09.18.14.27-.15,0-.21-.09-.14-.27Z" fill="#fff"/>
  <path d="m273.78,262.55c-.09-.11-.13-.23-.05-.37.09.11.1.23.05.37Z" fill="#fff"/>
  <path d="m311.52,230.21c0,.12,0,.24,0,.37-.12-.12-.13-.24,0-.37Z" fill="#fff"/>
  <path d="m181.38,239.3c.05.09.1.18.16.27-.16,0-.22-.09-.16-.27Z" fill="#fff"/>
  <path d="m260.04,239.27c.04.1.07.19.11.29-.2,0-.24-.1-.11-.29Z" fill="#fff"/>
  <path d="m270.82,239.29c.05.09.1.18.15.27-.15,0-.21-.09-.15-.27Z" fill="#fff"/>
  <path d="m267.79,266.83c-.05-.1-.1-.2-.16-.3.16.01.22.11.16.3Z" fill="#fff"/>
  <path d="m353.03,239.28l.09.27c-.18-.02-.22-.11-.09-.27Z" fill="#fff"/>
  <path d="m35.14,235.92c-.08.15-.16.2-.26.03.09,0,.17-.02.26-.03Z" fill="#fff"/>
  <path d="m325.06,222.82c.06-.1.12-.2.18-.3.04.19,0,.3-.18.3Z" fill="#fff"/>
  <path d="m267.62,269.95c.06-.09.11-.17.17-.26.05.19-.01.27-.17.26Z" fill="#fff"/>
  <path d="m286.13,269.69c.03.08.06.16.09.24-.17,0-.2-.09-.09-.24Z" fill="#fff"/>
  <path d="m107.94,98.82c-.02-.07-.04-.15-.05-.22,0-.03.04-.06.07-.09,0,.1-.01.21-.02.31Z" fill="#fff"/>
  <path d="m149.27,141.97c-.02.21-.09.27-.22.1.07-.03.15-.07.22-.1Z" fill="#fff"/>
  <path d="m363.05,25.93c-.89.01-1.79.02-2.68.04.89-.38,1.79-.41,2.68-.04Z" fill="#fff"/>
  <path d="m362.31,38.37c.16-.14.33-.15.51-.08-.15.17-.32.24-.51.08Z" fill="#fff"/>
  <path d="m359.52,38.22c.16.05.31.09.47.14-.2.15-.36.13-.47-.14Z" fill="#fff"/>
  <path d="m367.31,31.62c-.07-.14-.05-.26.05-.36.08.14.06.26-.05.36Z" fill="#fff"/>
  <path d="m221.07,71.78c-.54.09-1.08.08-1.6-.15.54-.09,1.08-.19,1.6.15Z" fill="#fff"/>
  <path d="m222.61,116.86c-.4.12-.77-.02-1.13-.19.39-.07.78-.13,1.13.19Z" fill="#fff"/>
  <path d="m220.81,97.02c.23-.13.46-.13.69-.05-.22.23-.45.27-.69.05Z" fill="#fff"/>
  <path d="m221.91,142.35c.22-.13.45-.13.69-.07-.22.19-.44.31-.69.07Z" fill="#fff"/>
  <path d="m191.42,97.05c.12-.05.21,0,.29.1-.12.07-.22.04-.29-.1Z" fill="#fff"/>
  <path d="m208.78,256.43c-.06-.14-.03-.26.07-.35.06.14.04.26-.07.35Z" fill="#fff"/>
  <path d="m201.63,261.67c-.07.03-.14.06-.21.1.01-.21.08-.24.21-.1Z" fill="#fff"/>
  <path d="m208.84,255.38c-.1-.1-.13-.21-.07-.35.11.09.13.21.07.35Z" fill="#fff"/>
  <polygon points="58.6 254.96 58.66 254.92 58.66 255.01 58.6 254.96" fill="#fff"/>
  <polygon points="10.96 224.52 10.97 224.59 10.92 224.58 10.96 224.52" fill="#fff"/>
  <path d="m119.45,236.49c.15-.1.31-.11.47-.06-.14.18-.3.26-.47.06Z" fill="#fff"/>
  <path d="m117.91,236.45c.09.01.17.02.26.03-.1.17-.18.11-.26-.03Z" fill="#fff"/>
  <path d="m131.64,253.4c-1.19.13-2.38.14-3.58,0,1.19-.28,2.38-.28,3.58,0Z" fill="#fff"/>
  <path d="m127.67,253.4c-.07.03-.15.06-.22.1.02-.21.09-.24.22-.1Z" fill="#fff"/>
  <path d="m234.39,261.22c-.09-.82-.11-1.64.03-2.45.19.82.21,1.64-.03,2.45Z" fill="#fff"/>
  <path d="m307.11,261.44c0,.1.02.21.03.31-.03-.07-.07-.14-.09-.22,0-.02.04-.06.06-.1Z" fill="#fff"/>
  <path d="m341.16,236.43c.16-.06.32-.04.47.06-.18.22-.33.11-.47-.06Z" fill="#fff"/>
  <path d="m342.91,236.49c.15-.1.31-.12.47-.06-.14.17-.29.28-.47.06Z" fill="#fff"/>
  <path d="m346.14,261.23c-.08-.13-.06-.25.03-.35.07.13.06.25-.03.35Z" fill="#fff"/>
  <path d="m337.33,262.19c.09.1.11.23.06.36-.09-.11-.13-.22-.06-.36Z" fill="#fff"/>
  <path d="m147.09,223.01c-1.63.02-3.25.04-4.88.06.07-.17.2-.25.35-.25,1.38,0,2.75,0,4.13.02.13,0,.26.12.4.18Z" fill="#fff"/>
  <path d="m150.33,228.72c-.13-.12-.14-.24-.01-.38,0,.13,0,.25.01.38Z" fill="#fff"/>
  <path d="m150.3,230.82c-.09-.12-.07-.24.02-.35.08.12.07.24-.02.35Z" fill="#fff"/>
  <path d="m142.16,235.57c0,.11,0,.21,0,.32-.13-.1-.14-.21,0-.32Z" fill="#fff"/>
  <path d="m42.63,260.93c-.06.67.43.45.68.62-.26.21-.54.26-.78.03-.22-.22-.05-.45.09-.64Z" fill="#fff"/>
  <path d="m46.81,261.54c.15-.03.3-.06.45-.09-.12.31-.27.27-.45.09Z" fill="#fff"/>
  <path d="m82.16,261.5l.07-.34c.16.08.17.23.08.38-.05.08-.12.05-.15-.04Z" fill="#fff"/>
  <path d="m77.53,261.45c.08.03.15.06.23.09-.13.15-.21.13-.23-.09Z" fill="#fff"/>
  <path d="m385.31,261.54c.15-.02.31-.04.46-.06-.13.28-.29.25-.46.06Z" fill="#fff"/>
  <path d="m381.1,261.18l.03.29c-.22-.07-.17-.17-.03-.29Z" fill="#fff"/>
  <path d="m381.13,261.47c.08.02.16.05.24.07-.12.15-.2.14-.24-.07Z" fill="#fff"/>
  <path d="m152.81,260.93c-.04.43.2.53.46.62-.18.18-.39.23-.57.03-.21-.25-.04-.45.1-.64Z" fill="#fff"/>
  <path d="m157.21,261.54c.08-.03.16-.06.23-.08-.03.22-.11.24-.23.08Z" fill="#fff"/>
</svg>